<svg version="1.1" id="Layer_1" xmlns="http://www.w3.org/2000/svg" xmlns:xlink="http://www.w3.org/1999/xlink" x="0px" y="0px"
	 width="100%" viewBox="0 0 500 500" enable-background="new 0 0 500 500" xml:space="preserve">
<path fill="#000000" opacity="1.000000" stroke="none" 
	d="
M277.000000,501.000000 
	C184.666687,501.000000 92.833374,501.000000 1.000049,501.000000 
	C1.000033,334.333405 1.000033,167.666794 1.000016,1.000139 
	C167.666565,1.000093 334.333130,1.000093 500.999756,1.000046 
	C500.999847,167.666519 500.999847,334.333038 500.999939,500.999786 
	C426.500000,501.000000 352.000000,501.000000 277.000000,501.000000 
M57.951752,304.954926 
	C57.951752,304.954926 57.950623,304.858582 57.419952,305.035919 
	C57.229912,305.345917 57.039875,305.655884 56.965172,305.966095 
	C56.965172,305.966095 56.964474,305.850769 56.432053,306.028503 
	C56.239971,306.337524 56.047890,306.646576 55.959389,306.956604 
	C55.959389,306.956604 55.959255,306.853027 55.427643,307.031250 
	C55.236099,307.340637 55.044559,307.650024 54.961658,307.960327 
	C54.961658,307.960327 54.961494,307.851685 54.435680,308.026306 
	C54.246006,308.330627 54.056332,308.634979 53.955585,309.019562 
	C53.955585,309.019562 53.881046,308.929535 53.261677,309.158508 
	C52.475456,310.407440 51.689236,311.656372 51.000305,312.996338 
	C51.000305,312.996338 50.903591,312.901794 50.289959,313.132965 
	C49.822758,314.061646 49.355556,314.990356 48.996708,315.997559 
	C48.996708,315.997559 48.884212,315.925354 48.230671,316.186218 
	C47.768681,317.452362 47.306694,318.718536 46.923454,319.979340 
	C46.923454,319.979340 46.916702,319.900665 46.270069,320.173950 
	C45.567699,322.047119 44.865334,323.920288 43.992630,326.623871 
	C43.327278,333.746002 42.272774,340.858002 42.087204,347.992615 
	C41.804340,358.867859 46.560555,367.985046 53.349617,376.646484 
	C53.349617,376.646484 53.694916,376.896149 53.694916,376.896149 
	C53.694916,376.896149 54.111679,376.819794 53.915733,376.808716 
	C53.915733,376.808716 53.900745,377.004395 53.982670,377.713104 
	C56.624477,380.172913 59.266289,382.632751 61.987167,384.997162 
	C61.987167,384.997162 61.900631,385.089844 62.163254,385.737701 
	C76.587639,395.838013 92.010986,399.589508 109.806213,393.029785 
	C118.398178,390.268890 125.864426,385.707153 131.676895,378.841370 
	C133.365677,379.731506 134.639267,380.402832 136.121689,381.707062 
	C137.065308,382.182068 138.008926,382.657074 138.951385,383.058929 
	C138.951385,383.058929 138.878265,383.061584 139.107513,383.692047 
	C140.057617,384.173798 141.007736,384.655518 141.965088,385.069275 
	C141.965088,385.069275 141.898331,385.083954 142.144012,385.736115 
	C143.748703,386.536255 145.353394,387.336426 146.956299,388.054352 
	C146.956299,388.054352 146.874100,388.057465 147.103729,388.687195 
	C148.050415,389.167725 148.997101,389.648254 149.969467,390.057220 
	C149.969467,390.057220 149.900620,390.089447 150.130325,390.703186 
	C150.759644,390.839874 151.388977,390.976532 152.204437,391.052490 
	C152.204437,391.052490 152.147522,390.865143 152.026886,391.256836 
	C152.132904,391.535889 152.327682,391.722626 153.318146,392.081696 
	C161.839920,397.404938 170.361679,402.728180 179.111954,408.674835 
	C180.044769,409.150574 180.977585,409.626282 181.977539,410.042389 
	C181.977539,410.042389 181.930756,410.119232 182.191467,410.769073 
	C187.859619,413.188904 190.218781,417.372101 189.015259,423.490021 
	C188.923477,423.956543 189.107925,424.477448 189.029419,425.804199 
	C188.766113,433.055817 189.750320,440.122437 192.211670,447.594513 
	C195.540848,455.897461 199.684464,463.576538 207.932938,468.026581 
	C207.932938,468.026581 207.846054,468.024902 208.028000,468.562988 
	C208.340302,468.758362 208.652588,468.953766 208.966858,469.079651 
	C208.966858,469.079651 208.897751,469.087128 209.136551,469.694824 
	C209.764191,469.829102 210.391815,469.963379 211.196289,470.065857 
	C211.196289,470.065857 211.168320,469.888367 211.142075,470.331207 
	C211.142075,470.331207 211.435425,470.686005 211.435425,470.686005 
	C211.435425,470.686005 211.895447,470.641296 212.508072,471.048950 
	C216.290878,473.045502 220.073685,475.042053 224.188766,477.757385 
	C228.892303,478.549957 233.569199,479.660889 238.305893,480.057343 
	C244.730057,480.595032 251.279495,481.077789 257.814819,477.031250 
	C258.594330,476.835693 259.417023,476.741150 260.146881,476.429382 
	C270.315674,472.085907 278.671814,465.499359 285.532288,455.990540 
	C286.051056,455.025757 286.569855,454.060974 286.996948,453.020355 
	C286.996948,453.020355 287.086578,453.104736 287.749481,452.802399 
	C293.945129,442.764099 294.962433,431.628784 293.910889,420.320282 
	C293.165497,412.304443 290.840790,404.603119 284.539520,398.086212 
	C284.337311,398.074280 284.135132,398.062378 283.817688,397.682648 
	C283.735657,397.398407 283.547180,397.251617 283.055389,396.609375 
	C282.649933,396.092651 282.244476,395.575928 282.005310,394.388611 
	C281.047729,393.242218 280.090149,392.095825 279.050720,390.994751 
	C279.050720,390.994751 279.142975,390.948212 278.961212,390.428284 
	C278.658081,390.237885 278.354950,390.047455 277.974365,389.931549 
	C277.974365,389.931549 278.066376,389.878326 277.828644,389.257843 
	C276.234711,388.127655 274.640747,386.997437 273.046356,385.937378 
	C273.046356,385.937378 273.116302,385.931854 272.856567,385.290344 
	C270.928802,384.156342 269.001068,383.022339 267.051758,381.958740 
	C267.051758,381.958740 267.119293,381.929413 266.868713,381.319916 
	C266.241058,381.155212 265.613434,380.990509 264.996094,380.961334 
	C264.996094,380.961334 265.131561,380.950409 264.885162,380.339355 
	C264.260590,380.171204 263.636017,380.003052 263.017487,379.912781 
	C263.017487,379.912781 263.095215,379.905243 262.771484,379.228180 
	C260.846588,378.873657 258.921722,378.519165 256.276917,378.020294 
	C255.129364,377.772980 253.981812,377.525665 253.008072,376.313873 
	C253.035736,353.900024 253.063400,331.486206 253.875778,309.019775 
	C267.852173,305.555450 278.271698,297.286560 286.597504,284.947693 
	C294.491577,274.043884 295.187195,261.446228 293.730133,248.927917 
	C292.777679,240.744873 289.582581,232.783020 283.050568,226.977173 
	C283.050568,226.977173 283.155731,226.980576 282.960205,226.433105 
	C282.638092,226.234680 282.315979,226.036255 281.988708,226.015579 
	C281.988708,226.015579 282.166443,226.021103 282.033203,225.362198 
	C281.395203,224.552002 280.757233,223.741791 280.093140,222.921097 
	C280.093140,222.921097 280.083282,222.894760 280.026489,222.198196 
	C278.721283,221.107407 277.416046,220.016617 276.104645,218.881775 
	C276.104645,218.881775 276.060394,218.876770 275.825439,218.248932 
	C273.239899,216.454041 270.654388,214.659164 267.756744,212.207657 
	C257.241547,205.893036 245.629761,205.103897 233.886459,206.128281 
	C229.475555,206.513031 225.215561,208.627731 220.292404,210.190796 
	C218.929321,211.134018 217.566238,212.077225 215.990601,212.474655 
	C215.619553,212.628555 215.248520,212.782455 214.946350,212.943695 
	C214.946350,212.943695 214.943314,212.874512 214.234589,212.969406 
	C212.455124,214.284698 210.675644,215.599976 208.977219,217.000137 
	C208.977219,217.000137 208.913223,216.902512 208.215439,216.969650 
	C205.120880,220.274231 202.026321,223.578812 198.881729,226.886063 
	C198.881729,226.886063 198.878067,226.936035 198.230438,227.189346 
	C192.430450,235.557236 188.126297,244.412567 189.029068,255.870697 
	C189.074783,257.901733 189.120514,259.932770 188.991852,262.856903 
	C188.584869,271.109558 191.066544,278.464783 195.985962,285.001343 
	C195.985962,285.001343 195.908325,285.095917 195.971008,285.806519 
	C197.612030,287.898926 199.253067,289.991364 200.941208,292.003571 
	C200.941208,292.003571 200.863663,292.054932 201.043854,292.588623 
	C201.360870,292.768311 201.677887,292.947998 201.993790,292.966614 
	C201.993790,292.966614 201.832733,292.967346 202.032257,293.355255 
	C202.161194,293.652802 202.387253,293.814270 203.382263,294.076935 
	C206.571976,296.756195 209.761673,299.435455 213.095886,302.616394 
	C213.387360,302.794525 213.678848,302.972626 213.969345,303.045837 
	C213.969345,303.045837 213.864487,303.047913 214.158249,303.708191 
	C217.737274,305.464874 221.162460,308.061523 224.936615,308.752747 
	C229.086868,309.512878 230.047058,311.302399 230.030960,314.988464 
	C229.948029,333.971710 230.023331,352.955627 229.939819,371.938873 
	C229.932327,373.639801 229.184265,375.337433 228.044479,377.009949 
	C226.552689,377.650055 224.973999,378.141846 223.584305,378.956177 
	C217.879471,382.299103 212.232147,385.740234 206.042465,389.153137 
	C205.668518,389.450073 205.294586,389.747009 205.037750,390.035675 
	C205.037750,390.035675 205.030518,389.918457 204.460220,390.212585 
	C203.877396,390.808746 203.294556,391.404877 202.402924,392.002502 
	C202.174301,392.093048 202.081192,392.259430 201.603027,392.933289 
	C201.347794,393.285370 201.092575,393.637451 200.942352,393.984436 
	C200.942352,393.984436 200.936172,393.879456 200.184067,393.960785 
	C198.607788,393.274994 196.969467,392.702728 195.467117,391.881653 
	C191.307938,389.608582 187.205475,387.231750 183.050522,384.896149 
	C183.050522,384.896149 183.040604,384.867706 182.856323,384.292450 
	C182.081696,384.252563 181.307068,384.212708 180.051147,383.583954 
	C175.978607,381.073273 171.906067,378.562622 167.980301,375.498352 
	C167.676422,375.292084 167.372543,375.085846 167.059341,374.947479 
	C167.059341,374.947479 167.127182,374.937744 166.887543,374.318268 
	C165.953094,373.843292 165.018631,373.368317 164.018494,372.960388 
	C164.018494,372.960388 164.064026,372.878082 163.811249,372.231567 
	C159.568161,369.786499 155.325073,367.341431 151.000000,365.000000 
	C151.000000,365.000000 151.081299,364.895477 150.841385,364.281525 
	C150.210464,364.243042 149.579559,364.204590 148.307800,363.803009 
	C143.624542,362.354004 143.326370,359.180298 145.697128,354.848816 
	C146.125854,350.031555 147.053177,345.189911 146.819412,340.404999 
	C146.644592,336.827148 144.972275,333.322449 144.022888,329.023773 
	C141.406143,323.550781 139.255753,317.779633 136.012909,312.706909 
	C133.755005,309.174896 129.997818,306.601379 126.953011,302.862305 
	C126.648148,302.526184 126.343292,302.190094 126.033356,301.983032 
	C126.033356,301.983032 126.162445,301.987396 125.976555,301.458801 
	C125.671715,301.261719 125.366875,301.064667 125.021103,300.977081 
	C125.021103,300.977081 125.055923,300.873077 124.799049,300.229614 
	C118.336388,296.994141 111.873734,293.758667 105.004318,290.319550 
	C105.004318,270.194244 104.985069,249.247360 105.047905,228.300751 
	C105.052063,226.913849 105.681252,225.528839 106.800995,224.036316 
	C124.222466,219.006927 136.155533,207.927155 143.690231,190.846939 
	C144.039200,189.799789 144.401627,188.756912 144.735062,187.704834 
	C148.293854,176.475586 148.212967,165.445007 142.664276,154.108490 
	C141.724976,152.440460 140.785690,150.772446 139.994949,148.341278 
	C137.262314,141.255386 132.701569,135.716232 126.016273,132.002960 
	C126.016273,132.002960 126.100708,131.912277 125.842400,131.274139 
	C123.911789,130.139435 121.981178,129.004730 120.052193,127.946411 
	C120.052193,127.946411 120.128532,127.943321 119.877594,127.332397 
	C119.250122,127.164825 118.622643,126.997253 118.004219,126.941711 
	C118.004219,126.941711 118.116173,126.931740 117.833191,126.264359 
	C106.178024,119.313988 93.680046,118.423561 80.862640,121.735298 
	C77.092072,122.709518 73.720535,125.228134 69.838249,127.601883 
	C69.222122,127.789993 68.606003,127.978104 67.371689,128.014038 
	C66.894737,128.301117 66.417786,128.588196 65.988052,128.971771 
	C65.988052,128.971771 65.923241,128.886337 65.262749,128.970139 
	C64.464233,129.628494 63.665718,130.286850 62.949593,130.948334 
	C62.949593,130.948334 62.951286,130.865906 62.282452,130.968384 
	C61.165573,131.938690 60.048695,132.908981 59.016430,133.955673 
	C59.016430,133.955673 58.938133,133.866608 58.413277,134.044281 
	C58.224754,134.351746 58.036232,134.659210 57.962315,134.966278 
	C57.962315,134.966278 57.960953,134.851700 57.430359,135.033707 
	C57.237476,135.342789 57.044594,135.651871 56.962414,135.961670 
	C56.962414,135.961670 56.962067,135.850967 56.432976,136.031982 
	C56.240467,136.339523 56.047958,136.647079 55.955128,136.955215 
	C55.955128,136.955215 55.954491,136.855530 55.425522,137.036667 
	C55.233807,137.345490 55.042095,137.654327 54.966682,137.964157 
	C54.966682,137.964157 54.966747,137.847855 54.441219,138.026855 
	C54.249493,138.331039 54.057770,138.635208 53.950520,139.020401 
	C53.950520,139.020401 53.881081,138.930130 53.263348,139.161728 
	C52.476719,140.410141 51.690090,141.658554 50.956490,142.974030 
	C50.956490,142.974030 50.884693,142.927338 50.243355,143.180634 
	C49.446346,144.777435 48.649338,146.374222 47.947483,147.967331 
	C47.947483,147.967331 47.942612,147.872223 47.329578,148.119049 
	C47.164230,148.747101 46.998882,149.375168 46.952724,149.995132 
	C46.952724,149.995132 46.943886,149.876007 46.331673,150.118896 
	C46.165947,150.744522 46.000221,151.370132 45.913826,151.988571 
	C45.913826,151.988571 45.905186,151.909378 45.288811,152.158875 
	C45.242935,152.797516 45.197056,153.436172 44.976704,154.746826 
	C44.623810,155.806137 44.270916,156.865448 43.183998,158.260620 
	C40.626377,167.858032 39.741276,177.456680 43.533333,187.954361 
	C43.772728,188.171463 44.012123,188.388550 44.136402,188.498947 
	C44.136402,188.498947 44.208443,188.359512 44.045971,189.634781 
	C44.086079,190.061417 44.126190,190.488068 44.178398,191.549515 
	C46.096630,195.072617 48.014858,198.595718 49.939991,202.021347 
	C49.939991,202.021347 49.842457,202.015594 49.975105,202.673645 
	C50.620201,203.482117 51.265293,204.290573 51.991352,205.003052 
	C51.991352,205.003052 51.914967,205.097946 51.977894,205.794144 
	C55.288292,208.893646 58.598694,211.993149 61.989952,215.023254 
	C61.989952,215.023254 61.921894,215.105957 62.162567,215.733139 
	C63.124596,216.102692 64.086624,216.472229 65.668289,217.188446 
	C70.425827,219.408707 75.183365,221.628952 80.450142,223.946320 
	C80.613792,224.001816 80.777443,224.057327 80.957642,224.046768 
	C80.957642,224.046768 80.890755,224.059586 81.260338,224.814911 
	C81.839836,226.099716 82.918602,227.382339 82.924271,228.669678 
	C83.015541,249.402283 82.970245,270.135498 82.246628,291.170593 
	C76.793861,293.755859 71.341087,296.341125 65.969292,298.931976 
	C65.969292,298.931976 65.973518,298.850922 65.312088,298.971405 
	C64.504814,299.621063 63.697536,300.270752 62.960835,300.925049 
	C62.960835,300.925049 62.961220,300.854340 62.417908,301.038055 
	C62.225426,301.357422 62.032948,301.676819 62.006535,302.000671 
	C62.006535,302.000671 62.011154,301.834595 61.350842,301.961517 
	C60.542515,302.602905 59.734192,303.244263 59.005520,303.932892 
	C59.005520,303.932892 58.954746,303.855408 58.426056,304.031952 
	C58.235844,304.339569 58.045628,304.647186 57.951752,304.954926 
M354.337311,308.303284 
	C354.337311,308.303284 354.050629,307.993042 354.050629,307.993042 
	C354.050629,307.993042 354.415588,307.805878 353.978210,308.365845 
	C353.692352,308.742828 353.406464,309.119843 352.605927,309.937195 
	C352.348053,310.289185 352.090179,310.641144 351.919128,310.986816 
	C351.919128,310.986816 351.911499,310.900085 351.268280,311.157196 
	C349.521118,313.655518 347.529541,316.019440 346.069092,318.675415 
	C339.796600,330.082367 339.137817,342.581543 341.319183,354.850922 
	C342.455048,361.239532 346.936401,367.033356 349.976562,373.013000 
	C349.976562,373.013000 349.886414,373.073303 349.970123,373.742218 
	C350.948090,374.859711 351.926086,375.977203 352.923431,377.027191 
	C352.923431,377.027191 352.855316,377.044220 353.038422,377.576935 
	C353.350220,377.769531 353.662018,377.962128 353.977631,378.009308 
	C353.977631,378.009308 353.832184,378.005920 354.081421,378.633484 
	C354.425629,378.925171 354.769806,379.216827 355.244904,379.892303 
	C355.660736,380.217712 356.076569,380.543091 356.935730,381.506714 
	C357.607605,382.049805 358.279449,382.592865 358.952728,383.030670 
	C358.952728,383.030670 358.847443,383.030334 359.025421,383.560028 
	C359.331848,383.752472 359.638245,383.944946 360.020996,384.052490 
	C360.020996,384.052490 359.937042,384.123260 360.182098,384.762451 
	C364.396179,387.305725 368.393280,390.351501 372.870697,392.285065 
	C381.534119,396.026306 390.642181,397.411255 400.856140,395.037201 
	C413.523499,393.171631 424.168854,387.612366 432.583160,377.169800 
	C432.388184,377.168579 432.193176,377.167358 431.984894,377.093689 
	C431.984894,377.093689 431.912750,377.108643 432.562744,377.560608 
	C433.087494,376.988159 433.612213,376.415741 433.939240,375.912140 
	C433.939240,375.912140 434.006378,376.110413 434.555206,375.973053 
	C434.750671,375.663452 434.946136,375.353882 435.073822,375.030457 
	C435.073822,375.030457 435.090820,375.097534 435.738678,374.839355 
	C440.798126,368.040009 444.759918,360.803558 445.230896,351.247314 
	C445.102386,345.500977 444.973877,339.754639 445.000610,333.176666 
	C443.805023,323.737152 440.073059,315.541077 433.075043,308.934875 
	C433.075043,308.934875 433.081635,308.896759 433.024261,308.199829 
	C431.716003,307.104187 430.407745,306.008575 429.078094,304.982452 
	C429.078094,304.982452 429.145782,304.955872 428.961212,304.426788 
	C428.651855,304.233765 428.342499,304.040710 428.019440,303.915375 
	C428.019440,303.915375 428.086517,303.898895 427.844666,303.273865 
	C426.886932,302.794128 425.929230,302.314392 424.977509,302.012695 
	C424.977509,302.012695 425.155548,302.007202 424.976318,301.462952 
	C424.664642,301.260925 424.352966,301.058929 424.032104,300.924683 
	C424.032104,300.924683 424.099396,300.912384 423.844971,300.265320 
	C418.920715,297.826508 413.937378,295.497437 409.102386,292.892914 
	C407.263947,291.902588 405.766541,290.279114 404.002930,288.220734 
	C404.036591,287.489899 404.070251,286.759064 404.868958,285.604614 
	C404.912567,265.126068 404.956146,244.647552 405.775360,224.013519 
	C412.538422,220.688980 419.910583,218.206848 425.930511,213.854446 
	C436.580048,206.154831 442.789429,195.192795 445.212097,181.270630 
	C445.090363,175.517746 444.968628,169.764862 444.999298,163.179489 
	C443.769135,154.317291 440.720306,146.305710 434.132294,139.876099 
	C434.132294,139.876099 434.059601,139.873993 434.020538,139.180618 
	C432.379608,137.758148 430.738678,136.335678 429.085724,134.980713 
	C429.085724,134.980713 429.152802,134.966537 428.967133,134.438568 
	C428.660309,134.244034 428.353485,134.049484 428.045227,133.960297 
	C428.045227,133.960297 428.150604,133.960526 427.966278,133.436722 
	C427.661835,133.243896 427.357361,133.051056 427.029114,132.975800 
	C427.029114,132.975800 427.044373,132.863358 426.795074,132.244934 
	C425.917053,132.162170 425.039062,132.079407 423.815338,131.375183 
	C420.821503,129.595413 417.827667,127.815643 414.826965,125.291542 
	C414.324036,124.883987 413.882324,124.329712 413.309143,124.090508 
	C401.376953,119.110641 389.214386,118.634064 376.944977,122.598656 
	C374.865540,123.270576 373.084595,124.866257 370.785828,126.642426 
	C369.175720,127.417747 367.081421,127.786316 366.033417,129.033829 
	C358.772827,137.676636 351.772705,134.409912 344.699371,128.903687 
	C343.433197,127.918037 342.123688,126.988060 340.855957,125.329712 
	C334.272614,121.528648 327.689240,117.727585 320.782715,113.295692 
	C313.135132,108.546021 305.487549,103.796341 297.836975,98.291939 
	C294.310211,96.275703 293.500214,93.159782 293.984467,89.351181 
	C294.233368,87.393539 294.293365,85.335434 293.981445,83.396317 
	C292.707214,75.475647 291.294495,67.567467 284.711792,61.177452 
	C283.422150,59.839985 282.132477,58.502518 280.965820,56.498852 
	C280.683716,55.977287 280.401611,55.455727 280.074585,55.015690 
	C280.074585,55.015690 280.149353,54.960232 279.966492,54.434338 
	C279.660767,54.241703 279.355011,54.049068 279.049225,53.942940 
	C279.049225,53.942940 279.135712,53.941555 278.952911,53.413273 
	C278.642517,53.222767 278.332123,53.032265 278.021027,52.980465 
	C278.021027,52.980465 278.159729,52.980591 277.977966,52.453545 
	C277.674042,52.259079 277.370117,52.064617 277.065002,51.942749 
	C277.065002,51.942749 277.137604,51.942299 276.956573,51.418594 
	C276.649963,51.228481 276.343323,51.038372 275.986023,50.921783 
	C275.986023,50.921783 276.065094,50.880360 275.822876,50.250004 
	C267.401062,42.476650 257.683319,37.902077 245.078873,38.023155 
	C243.256622,38.022434 241.430771,38.096111 239.612747,38.008053 
	C231.937622,37.636326 224.586777,38.659313 217.286896,42.967873 
	C216.495255,43.613487 215.703613,44.259098 214.990158,44.957722 
	C214.990158,44.957722 214.940201,44.877537 214.233063,44.975502 
	C212.455002,46.287575 210.676926,47.599644 208.986404,49.002468 
	C208.986404,49.002468 208.906006,48.909649 208.209167,48.972591 
	C205.115662,52.276722 202.022156,55.580849 198.878647,58.888252 
	C198.878647,58.888252 198.875549,58.938271 198.232559,59.189945 
	C192.261383,67.501404 188.448593,76.516197 189.029327,87.876152 
	C189.082520,91.390549 189.135712,94.904938 189.152725,99.016907 
	C190.707962,108.474533 193.341034,117.427368 200.993286,123.999390 
	C200.993286,123.999390 200.885483,124.077629 201.072296,124.633125 
	C201.419952,124.704033 201.767609,124.774933 202.671188,125.189011 
	C204.165375,126.769035 205.659546,128.349060 207.023804,130.489685 
	C207.326630,130.700745 207.629471,130.911789 207.993195,131.042053 
	C207.993195,131.042053 207.908173,131.096786 208.165436,131.737823 
	C212.257065,134.180695 216.186310,136.966797 220.473923,138.995453 
	C229.568359,143.298416 239.167465,144.238297 249.846893,142.044357 
	C265.741150,139.222549 277.790497,130.660431 286.060303,117.153831 
	C305.946014,129.512054 325.288361,141.532593 344.537933,153.495468 
	C343.625061,156.408829 342.759583,159.170975 341.141113,162.349075 
	C341.087433,169.253433 340.452728,176.215958 341.136780,183.046432 
	C341.881744,190.485687 344.196014,197.648224 349.999847,203.029831 
	C349.999847,203.029831 349.903381,203.086823 349.976990,203.768265 
	C351.339050,205.124481 352.701080,206.480713 354.652161,208.168152 
	C361.831512,216.140350 370.298065,221.992905 381.377167,224.909500 
	C381.584229,226.498688 381.967407,228.087433 381.971375,229.677124 
	C382.014557,247.000946 381.685059,264.333588 382.163116,281.644318 
	C382.337799,287.970276 381.646179,292.626068 374.052124,294.384460 
	C368.798828,298.020233 363.545532,301.656006 357.821960,305.255676 
	C357.255981,305.853516 356.689972,306.451385 356.062683,307.018341 
	C356.062683,307.018341 356.038757,307.082672 355.552246,307.225586 
	C355.401703,307.511841 355.251160,307.798096 354.868500,307.975098 
	C354.868500,307.975098 354.758087,308.206604 354.337311,308.303284 
z"/>
<path fill="#EF4C25" opacity="1.000000" stroke="none" 
	d="
M285.930786,285.288971 
	C278.271698,297.286560 267.852173,305.555450 253.049957,308.962830 
	C251.817566,309.877716 251.059448,310.848389 251.056213,311.821564 
	C250.987259,332.484406 250.973679,353.147675 251.080734,373.810211 
	C251.086731,374.969238 252.223694,376.122437 252.834259,377.278351 
	C253.981812,377.525665 255.129364,377.772980 256.833832,378.416199 
	C259.292236,379.176453 261.193726,379.540833 263.095215,379.905243 
	C263.095215,379.905243 263.017487,379.912781 262.921234,380.303162 
	C263.593842,380.779144 264.362701,380.864777 265.131561,380.950409 
	C265.131561,380.950409 264.996094,380.961334 264.976196,381.328552 
	C265.677277,381.773621 266.398285,381.851501 267.119293,381.929382 
	C267.119293,381.929413 267.051758,381.958740 266.778900,382.216370 
	C268.709473,383.626587 270.912903,384.779205 273.116302,385.931854 
	C273.116302,385.931854 273.046356,385.937378 272.841309,386.247375 
	C274.446259,387.664368 276.256317,388.771362 278.066376,389.878326 
	C278.066376,389.878326 277.974365,389.931549 277.753571,390.336792 
	C278.069519,390.810730 278.606232,390.879456 279.142975,390.948181 
	C279.142975,390.948212 279.050720,390.994751 278.689148,391.075562 
	C279.498077,392.457306 280.668549,393.758240 281.839020,395.059204 
	C282.244476,395.575928 282.649933,396.092651 283.411926,396.863647 
	C283.823303,397.428741 283.878143,397.739594 283.932983,398.050446 
	C284.135132,398.062378 284.337311,398.074280 284.415222,398.524170 
	C284.298615,399.268951 284.190338,399.648468 284.330566,399.872345 
	C294.366547,415.895172 295.037659,432.507660 287.584656,449.682312 
	C287.141724,450.702972 287.240082,451.958496 287.086578,453.104736 
	C287.086578,453.104736 286.996948,453.020355 286.827637,452.747437 
	C286.075745,453.753815 285.493134,455.033051 284.910522,456.312317 
	C278.671814,465.499359 270.315674,472.085907 260.146881,476.429382 
	C259.417023,476.741150 258.594330,476.835693 257.020630,476.968079 
	C247.675873,477.256287 239.127304,477.688141 230.573288,477.904449 
	C228.343079,477.960815 226.095871,477.345459 223.856476,477.038605 
	C220.073685,475.042053 216.290878,473.045502 211.845917,471.036255 
	C211.178619,470.645172 211.173462,470.266785 211.168320,469.888367 
	C211.168320,469.888367 211.196289,470.065857 211.030029,469.671448 
	C210.208435,469.213715 209.553101,469.150421 208.897751,469.087128 
	C208.897751,469.087128 208.966858,469.079651 209.127563,468.716736 
	C208.807526,468.244171 208.326797,468.134521 207.846054,468.024902 
	C207.846054,468.024902 207.932938,468.026581 208.185638,467.781067 
	C203.696823,461.263428 198.969711,454.980316 194.193588,448.734711 
	C193.661774,448.039215 192.850754,447.557251 192.169220,446.976288 
	C189.750320,440.122437 188.766113,433.055817 189.416122,425.173584 
	C190.014664,422.762695 190.184601,420.976166 190.446335,419.203247 
	C191.176575,414.256836 187.664368,410.493347 181.930756,410.119232 
	C181.930756,410.119232 181.977539,410.042389 182.265503,409.796051 
	C181.330124,409.050262 180.106796,408.550842 178.883453,408.051422 
	C170.361679,402.728180 161.839920,397.404938 152.678574,391.932373 
	C151.979828,391.672119 151.852585,391.544128 151.875275,391.453735 
	C151.926956,391.247742 152.052170,391.060181 152.147522,390.865143 
	C152.147522,390.865143 152.204437,391.052490 152.065765,390.661865 
	C151.251602,390.210663 150.576111,390.150055 149.900620,390.089447 
	C149.900620,390.089447 149.969467,390.057220 150.162018,389.730225 
	C149.194412,388.954651 148.034256,388.506073 146.874084,388.057495 
	C146.874100,388.057465 146.956299,388.054352 147.111816,387.731201 
	C145.477661,386.633331 143.687988,385.858643 141.898331,385.083954 
	C141.898331,385.083954 141.965088,385.069275 142.120697,384.726501 
	C141.143631,383.943024 140.010956,383.502289 138.878265,383.061584 
	C138.878265,383.061584 138.951385,383.058929 139.122620,382.750793 
	C138.166840,381.986511 137.039841,381.530334 135.912857,381.074127 
	C134.639267,380.402832 133.365677,379.731506 131.676895,378.841370 
	C125.864426,385.707153 118.398178,390.268890 108.998108,392.987671 
	C92.126503,396.677460 77.112663,394.605469 63.446056,384.919189 
	C63.129993,384.695221 62.424488,385.020691 61.900635,385.089844 
	C61.900631,385.089844 61.987167,384.997162 62.267899,384.808716 
	C59.666004,382.081635 56.783379,379.542999 53.900749,377.004395 
	C53.900745,377.004395 53.915733,376.808716 53.769928,377.075073 
	C53.508003,376.964478 53.391880,376.587524 53.275749,376.210571 
	C46.560555,367.985046 41.804340,358.867859 42.087204,347.992615 
	C42.272774,340.858002 43.327278,333.746002 44.430706,326.154541 
	C45.551422,323.757019 46.234062,321.828857 46.916702,319.900665 
	C46.916702,319.900665 46.923454,319.979340 47.299736,320.075378 
	C48.078751,318.756073 48.481480,317.340698 48.884209,315.925354 
	C48.884212,315.925354 48.996708,315.997559 49.284927,316.282410 
	C50.016628,315.345428 50.460110,314.123627 50.903587,312.901794 
	C50.903591,312.901794 51.000305,312.996338 51.236267,313.301697 
	C52.275166,312.047852 53.078102,310.488708 53.881042,308.929535 
	C53.881046,308.929535 53.955585,309.019562 54.317688,309.242676 
	C54.773689,308.927734 54.867592,308.389709 54.961494,307.851685 
	C54.961494,307.851685 54.961658,307.960327 55.321800,308.140350 
	C55.774380,307.831268 55.866817,307.342133 55.959251,306.853027 
	C55.959255,306.853027 55.959389,306.956604 56.315117,307.150208 
	C56.768719,306.846100 56.866596,306.348450 56.964470,305.850769 
	C56.964474,305.850769 56.965172,305.966095 57.334587,306.126526 
	C57.786213,305.810852 57.868416,305.334717 57.950623,304.858582 
	C57.950623,304.858582 57.951752,304.954926 58.324196,305.154846 
	C58.782673,304.855011 58.868706,304.355194 58.954742,303.855408 
	C58.954746,303.855408 59.005520,303.932892 59.155640,304.302917 
	C60.207561,303.726807 61.109360,302.780701 62.011154,301.834595 
	C62.011154,301.834595 62.006535,302.000671 62.328613,302.058838 
	C62.754200,301.696106 62.857708,301.275238 62.961220,300.854340 
	C62.961220,300.854340 62.960835,300.925049 63.220989,301.228271 
	C64.311935,300.637970 65.142731,299.744446 65.973526,298.850922 
	C65.973518,298.850922 65.969292,298.931976 66.225304,299.218933 
	C72.062378,297.254181 77.643440,295.002441 83.516083,292.385223 
	C83.873810,270.378998 83.942123,248.738251 84.002617,227.097488 
	C84.008369,225.041000 84.061310,222.885773 80.890755,224.059586 
	C80.890755,224.059586 80.957642,224.046768 81.122841,223.850098 
	C80.838997,223.718704 80.389946,223.783966 79.940903,223.849213 
	C75.183365,221.628952 70.425827,219.408707 65.237541,216.652023 
	C63.845158,215.779053 62.883526,215.442505 61.921894,215.105957 
	C61.921894,215.105957 61.989952,215.023254 62.271500,214.821442 
	C59.007023,211.445740 55.460995,208.271835 51.914967,205.097946 
	C51.914967,205.097946 51.991352,205.003052 52.298225,204.792603 
	C51.684219,203.726639 50.763336,202.871124 49.842457,202.015594 
	C49.842457,202.015594 49.939991,202.021347 50.211517,201.765472 
	C48.377468,197.977966 46.271885,194.446335 44.166302,190.914703 
	C44.126190,190.488068 44.086079,190.061417 44.216461,188.950562 
	C44.386951,188.266327 44.494171,188.507843 44.494171,188.507843 
	C44.494171,188.507843 44.251518,188.605621 44.251518,188.605621 
	C44.012123,188.388550 43.772728,188.171463 43.621109,187.257263 
	C43.778599,177.015045 43.848312,167.469894 43.918022,157.924759 
	C44.270916,156.865448 44.623810,155.806137 45.427696,154.251556 
	C45.887520,153.140656 45.896351,152.525024 45.905186,151.909378 
	C45.905186,151.909378 45.913826,151.988571 46.304161,152.055237 
	C46.777622,151.373260 46.860756,150.624634 46.943886,149.876007 
	C46.943886,149.876007 46.952724,149.995132 47.318932,150.042206 
	C47.770966,149.350266 47.856789,148.611252 47.942612,147.872223 
	C47.942612,147.872223 47.947483,147.967331 48.281372,148.109772 
	C49.371735,146.477249 50.128212,144.702301 50.884689,142.927338 
	C50.884693,142.927338 50.956490,142.974030 51.211739,143.297516 
	C52.271683,142.057373 53.076378,140.493744 53.881081,138.930130 
	C53.881081,138.930130 53.950520,139.020401 54.311768,139.252869 
	C54.770924,138.939499 54.868835,138.393677 54.966743,137.847855 
	C54.966747,137.847855 54.966682,137.964157 55.336411,138.145279 
	C55.788918,137.836105 55.871704,137.345825 55.954491,136.855530 
	C55.954491,136.855530 55.955128,136.955215 56.321133,137.166748 
	C56.778782,136.869171 56.870426,136.360062 56.962067,135.850967 
	C56.962067,135.850967 56.962414,135.961670 57.325317,136.148773 
	C57.779133,135.841156 57.870045,135.346436 57.960953,134.851700 
	C57.960953,134.851700 57.962315,134.966278 58.360870,135.142120 
	C58.818996,134.834183 58.878563,134.350388 58.938133,133.866608 
	C58.938133,133.866608 59.016430,133.955673 59.144714,134.331406 
	C60.499092,133.426727 61.725189,132.146317 62.951286,130.865906 
	C62.951286,130.865906 62.949593,130.948334 63.273991,131.187195 
	C64.373337,130.579498 65.148293,129.732910 65.923241,128.886337 
	C65.923241,128.886337 65.988052,128.971771 66.097076,129.311646 
	C66.800697,129.156418 67.395287,128.661316 67.989883,128.166214 
	C68.606003,127.978104 69.222122,127.789993 70.378098,127.304977 
	C82.149391,122.253006 93.703873,120.368912 105.727516,123.339294 
	C109.898346,124.369690 113.988937,125.724892 118.116173,126.931740 
	C118.116173,126.931740 118.004219,126.941711 117.955856,127.313927 
	C118.647842,127.771866 119.388184,127.857590 120.128532,127.943314 
	C120.128532,127.943321 120.052193,127.946411 119.838333,128.239807 
	C121.783226,129.659546 123.941971,130.785904 126.100708,131.912277 
	C126.100708,131.912277 126.016273,132.002960 125.724792,132.184784 
	C130.237671,137.945892 135.042038,143.525146 139.846405,149.104416 
	C140.785690,150.772446 141.724976,152.440460 142.467194,154.612045 
	C142.206955,155.597885 141.951111,156.157211 142.108704,156.551193 
	C146.362411,167.186005 145.932358,177.910538 142.874130,188.720215 
	C142.658768,189.481384 142.933899,190.381348 142.980942,191.216766 
	C136.155533,207.927155 124.222466,219.006927 105.967789,224.024719 
	C104.688217,224.584518 103.853584,225.154541 103.851532,225.727539 
	C103.774315,247.280319 103.748047,268.833496 103.849625,290.385986 
	C103.854050,291.325317 104.922020,292.681519 105.841537,293.126404 
	C111.919907,296.067261 118.090652,298.817596 124.253181,301.581207 
	C124.387817,301.641602 124.782524,301.122070 125.055923,300.873077 
	C125.055923,300.873077 125.021103,300.977081 124.756119,301.303894 
	C125.048233,301.749603 125.605339,301.868500 126.162445,301.987396 
	C126.162445,301.987396 126.033356,301.983032 125.851562,302.284088 
	C126.083305,302.923309 126.496849,303.261505 126.910393,303.599670 
	C129.997818,306.601379 133.755005,309.174896 136.012909,312.706909 
	C139.255753,317.779633 141.406143,323.550781 143.930527,329.846130 
	C143.882401,338.175964 143.901489,345.683868 144.012711,353.190399 
	C144.022980,353.882294 144.620209,354.565491 144.944885,355.252747 
	C143.326370,359.180298 143.624542,362.354004 148.795654,364.345459 
	C149.882767,364.890442 150.482025,364.892944 151.081299,364.895477 
	C151.081299,364.895477 151.000000,365.000000 150.747711,365.219025 
	C153.049667,367.151855 155.520386,369.012604 158.187134,370.528534 
	C160.004181,371.561371 162.095413,372.111877 164.064026,372.878082 
	C164.064026,372.878082 164.018494,372.960388 163.723877,373.240173 
	C164.661911,373.992584 165.894547,374.465149 167.127182,374.937744 
	C167.127182,374.937744 167.059341,374.947479 166.833939,375.186523 
	C167.016861,375.634369 167.425201,375.843170 167.833527,376.051941 
	C171.906067,378.562622 175.978607,381.073273 180.506714,384.155029 
	C181.655060,384.773285 182.347839,384.820465 183.040604,384.867676 
	C183.040604,384.867706 183.050522,384.896149 182.781677,385.170227 
	C187.603195,388.721771 192.674820,392.028961 197.795166,395.258881 
	C199.369598,396.252045 201.154694,397.208740 200.936172,393.879456 
	C200.936172,393.879456 200.942352,393.984436 201.339966,394.059082 
	C201.866241,393.589691 201.994904,393.045654 202.123566,392.501617 
	C202.081192,392.259430 202.174301,392.093048 202.648773,391.659973 
	C203.606598,390.851135 204.318558,390.384796 205.030518,389.918457 
	C205.030518,389.918457 205.037750,390.035675 205.177856,389.899170 
	C205.733185,389.556854 206.148422,389.351044 206.563675,389.145264 
	C212.232147,385.740234 217.879471,382.299103 223.584305,378.956177 
	C224.973999,378.141846 226.552689,377.650055 228.870514,377.078430 
	C230.194077,375.583679 231.105179,374.025085 231.122772,372.456451 
	C231.247650,361.322754 231.189743,350.187073 231.189880,339.052002 
	C231.190002,329.107300 231.189911,319.162567 231.189911,309.276398 
	C225.157150,307.107635 219.510818,305.077759 213.864487,303.047913 
	C213.864487,303.047913 213.969345,303.045837 214.128845,302.764648 
	C213.842697,302.360535 213.397049,302.237610 212.951385,302.114716 
	C209.761673,299.435455 206.571976,296.756195 203.000275,293.726532 
	C202.456924,293.046722 202.195068,292.910461 201.832733,292.967346 
	C201.832733,292.967346 201.993790,292.966614 202.077484,292.619812 
	C201.728668,292.200348 201.296158,292.127655 200.863663,292.054932 
	C200.863663,292.054932 200.941208,292.003571 201.284119,291.834839 
	C199.720795,289.476074 197.814560,287.285980 195.908325,285.095917 
	C195.908325,285.095917 195.985962,285.001343 196.311707,284.811676 
	C194.147049,277.069275 191.656647,269.516541 189.166229,261.963806 
	C189.120514,259.932770 189.074783,257.901733 189.419220,255.235809 
	C190.679596,245.536240 193.460648,237.144638 198.497299,229.510681 
	C198.930298,228.854401 198.765289,227.803574 198.878067,226.936035 
	C198.878067,226.936035 198.881729,226.886063 199.083008,227.258301 
	C202.493942,224.054550 205.703583,220.478531 208.913223,216.902512 
	C208.913223,216.902512 208.977219,217.000137 209.203217,217.272949 
	C211.267258,215.988693 213.105286,214.431610 214.943329,212.874512 
	C214.943314,212.874512 214.946350,212.943695 215.228760,213.190521 
	C215.741852,213.298370 215.972504,213.159393 216.203156,213.020432 
	C217.566238,212.077225 218.929321,211.134018 220.881805,210.227066 
	C237.492142,205.243958 253.048370,205.772247 268.142151,214.431671 
	C270.911957,216.097015 273.486176,217.486893 276.060394,218.876770 
	C276.060394,218.876770 276.104645,218.881775 275.715668,219.111237 
	C276.912231,220.525406 278.497742,221.710083 280.083282,222.894760 
	C280.083282,222.894760 280.093140,222.921097 279.700378,223.093903 
	C280.260590,224.184845 281.213501,225.102966 282.166443,226.021103 
	C282.166443,226.021103 281.988708,226.015579 281.954132,226.311127 
	C282.331604,226.731308 282.743683,226.855942 283.155731,226.980576 
	C283.155731,226.980576 283.050568,226.977173 282.825806,227.246719 
	C292.655823,242.484070 295.259979,258.537445 289.541534,275.760345 
	C288.472168,278.981110 287.141083,282.114990 285.930786,285.288971 
z"/>
<path fill="#EF4C25" opacity="1.000000" stroke="none" 
	d="
M341.894104,161.933121 
	C342.759583,159.170975 343.625061,156.408829 344.537933,153.495468 
	C325.288361,141.532593 305.946014,129.512054 286.060303,117.153831 
	C277.790497,130.660431 265.741150,139.222549 249.076263,142.011444 
	C247.484161,141.877213 246.654434,141.643478 245.842499,141.694244 
	C232.556854,142.524994 220.517548,139.161530 209.806549,131.163315 
	C209.389664,130.852005 208.550552,131.106140 207.908173,131.096786 
	C207.908173,131.096786 207.993195,131.042053 208.200150,130.804001 
	C207.989319,130.353668 207.571518,130.141373 207.153732,129.929077 
	C205.659546,128.349060 204.165375,126.769035 202.317368,124.651321 
	C201.604187,124.101624 201.244843,124.089630 200.885483,124.077629 
	C200.885483,124.077629 200.993286,123.999390 201.308563,123.837975 
	C196.480255,116.317619 192.022034,108.651375 190.579605,99.583595 
	C190.507965,99.133163 189.670029,98.804626 189.188904,98.419334 
	C189.135712,94.904938 189.082520,91.390549 189.422089,87.231155 
	C190.644608,77.506180 193.481949,69.129631 198.476578,61.475151 
	C198.903305,60.821186 198.756134,59.792747 198.875549,58.938271 
	C198.875549,58.938271 198.878647,58.888252 199.085403,59.255974 
	C202.496780,56.052349 205.701385,52.480999 208.906006,48.909649 
	C208.906006,48.909649 208.986404,49.002468 209.198456,49.284302 
	C211.253738,48.003269 213.096970,46.440403 214.940201,44.877537 
	C214.940201,44.877537 214.990158,44.957722 215.162567,45.264881 
	C216.231644,45.072865 217.128296,44.573689 218.398438,44.020935 
	C227.389664,39.809116 236.560928,38.627804 246.382980,39.005741 
	C256.689026,40.476372 265.690094,44.025089 273.561310,50.331982 
	C274.158813,50.810711 275.219635,50.711117 276.065094,50.880360 
	C276.065094,50.880360 275.986023,50.921783 275.820068,51.336407 
	C276.148590,51.814785 276.643097,51.878540 277.137604,51.942299 
	C277.137604,51.942299 277.065002,51.942749 276.771484,52.290146 
	C277.038544,52.751896 277.599152,52.866241 278.159729,52.980591 
	C278.159729,52.980591 278.021027,52.980465 277.884644,53.361984 
	C278.210754,53.809521 278.673218,53.875538 279.135712,53.941555 
	C279.135712,53.941555 279.049225,53.942940 278.815643,54.319794 
	C279.104492,54.784512 279.626923,54.872372 280.149353,54.960232 
	C280.149353,54.960232 280.074585,55.015690 279.699341,55.126965 
	C279.830322,55.880512 280.336578,56.522785 280.842834,57.165054 
	C282.132477,58.502518 283.422150,59.839985 284.546326,61.640686 
	C289.861023,71.357330 293.122589,81.276779 292.360779,92.108124 
	C292.048004,96.555328 293.694061,98.562134 297.839935,99.046677 
	C305.487549,103.796341 313.135132,108.546021 320.956177,113.959702 
	C327.697815,118.426598 334.266022,122.229477 340.834198,126.032364 
	C342.123688,126.988060 343.433197,127.918037 344.699371,128.903687 
	C351.772705,134.409912 358.772827,137.676636 366.033417,129.033829 
	C367.081421,127.786316 369.175720,127.417747 371.364410,126.359650 
	C382.528992,122.469719 393.261505,120.414307 404.406036,123.184830 
	C407.902161,124.053955 411.359009,125.081070 414.833832,126.035873 
	C417.827667,127.815643 420.821503,129.595413 424.128204,132.093414 
	C425.308838,132.828888 426.176605,132.846130 427.044373,132.863373 
	C427.044373,132.863358 427.029114,132.975800 426.787354,133.337280 
	C427.080566,133.785995 427.615601,133.873260 428.150604,133.960526 
	C428.150604,133.960526 428.045227,133.960297 427.820129,134.321625 
	C428.114319,134.777466 428.633545,134.871994 429.152802,134.966537 
	C429.152802,134.966537 429.085724,134.980713 428.737732,135.179214 
	C430.279724,136.876465 432.169678,138.375229 434.059601,139.873993 
	C434.059601,139.873993 434.132294,139.876099 433.702698,140.024475 
	C436.872223,148.111465 440.471344,156.050079 444.019104,164.455383 
	C444.259827,170.636230 444.551880,176.350403 444.843933,182.064560 
	C442.789429,195.192795 436.580048,206.154831 425.930511,213.854446 
	C419.910583,218.206848 412.538422,220.688980 404.966766,224.069458 
	C403.821228,225.117615 403.191345,226.109634 403.190613,227.102112 
	C403.176178,246.707672 403.234650,266.313293 403.158997,286.298035 
	C403.098846,287.463287 403.158020,288.249329 403.155609,289.416016 
	C404.206818,291.085724 405.072083,292.874298 406.478363,293.571350 
	C410.890015,295.758209 415.497955,297.551971 420.046661,299.457886 
	C421.368622,300.011810 422.746918,300.431274 424.099396,300.912384 
	C424.099396,300.912384 424.032104,300.924683 423.863373,301.258087 
	C424.181610,301.730072 424.668579,301.868652 425.155548,302.007202 
	C425.155548,302.007202 424.977509,302.012695 424.998901,302.337128 
	C426.042389,303.074005 427.064453,303.486450 428.086517,303.898895 
	C428.086517,303.898895 428.019440,303.915375 427.853333,304.310425 
	C428.173401,304.788971 428.659576,304.872406 429.145782,304.955872 
	C429.145782,304.955872 429.078094,304.982452 428.725952,305.187866 
	C429.943054,306.561127 431.512329,307.728943 433.081635,308.896759 
	C433.081635,308.896759 433.075043,308.934875 432.700928,309.102905 
	C437.823608,316.758606 442.039948,324.854462 444.019836,334.457214 
	C444.024536,340.621368 444.076599,346.318298 444.022400,352.378662 
	C441.094879,359.405151 438.257202,366.061310 435.476166,372.741119 
	C435.178467,373.456116 435.211304,374.308746 435.090820,375.097534 
	C435.090820,375.097534 435.073822,375.030457 434.737427,374.848633 
	C434.269470,375.148010 434.137909,375.629211 434.006348,376.110413 
	C434.006378,376.110413 433.939240,375.912140 433.837097,376.151855 
	C433.127563,376.630554 432.520142,376.869598 431.912750,377.108643 
	C431.912750,377.108643 431.984894,377.093689 432.110565,376.997009 
	C432.339874,376.969299 432.526001,377.032440 432.531311,377.108337 
	C432.545959,377.316071 432.484528,377.529175 432.453186,377.740143 
	C424.168854,387.612366 413.523499,393.171631 400.034668,395.001892 
	C398.721710,394.885956 398.226410,394.716675 397.739288,394.737549 
	C384.485992,395.306244 372.357788,392.138672 361.678436,384.019257 
	C361.327301,383.752289 360.527649,384.075256 359.937042,384.123260 
	C359.937042,384.123260 360.020996,384.052490 360.222717,383.695160 
	C359.898804,383.235321 359.373108,383.132843 358.847443,383.030334 
	C358.847443,383.030334 358.952728,383.030670 359.164734,382.691956 
	C358.415283,381.858337 357.453857,381.363403 356.492401,380.868500 
	C356.076569,380.543091 355.660736,380.217712 355.285339,379.245483 
	C354.827881,378.401093 354.330048,378.203491 353.832184,378.005920 
	C353.832184,378.005920 353.977631,378.009308 354.117157,377.657257 
	C353.789551,377.218201 353.322449,377.131226 352.855316,377.044250 
	C352.855316,377.044220 352.923431,377.027191 353.272766,376.811646 
	C352.376892,375.421814 351.131653,374.247559 349.886414,373.073303 
	C349.886414,373.073303 349.976562,373.013000 350.285553,372.811584 
	C350.405518,372.152039 350.267303,371.664337 350.020233,371.239990 
	C338.585968,351.604370 338.934235,332.284424 351.493530,313.248199 
	C351.895599,312.638824 351.783783,311.690430 351.911499,310.900085 
	C351.911499,310.900085 351.919128,310.986816 352.330933,311.062866 
	C352.868713,310.591522 352.994659,310.044189 353.120605,309.496826 
	C353.406464,309.119843 353.692352,308.742828 354.157898,308.180298 
	C354.337555,307.994720 354.758087,308.206604 354.758087,308.206604 
	C354.758087,308.206604 354.868500,307.975098 354.762329,307.677643 
	C355.117004,307.281006 355.577881,307.181824 356.038757,307.082642 
	C356.038757,307.082672 356.062683,307.018341 355.949585,306.694580 
	C356.655060,306.011108 357.473663,305.651428 358.292236,305.291779 
	C363.545532,301.656006 368.798828,298.020233 374.568024,294.546448 
	C377.739471,294.033875 380.395020,293.359314 383.213562,292.643311 
	C383.213562,270.263031 383.234985,248.310043 383.120331,226.357788 
	C383.116516,225.623886 381.736725,224.897186 380.998322,224.167114 
	C370.298065,221.992905 361.831512,216.140350 354.331055,207.642319 
	C352.641083,205.773270 351.272217,204.430054 349.903381,203.086823 
	C349.903381,203.086823 349.999847,203.029831 350.278198,202.801971 
	C346.226807,195.021729 342.591461,187.198837 342.156219,178.330643 
	C341.888367,172.873657 341.969604,167.399551 341.894104,161.933121 
z"/>
<path fill="#FDECE7" opacity="1.000000" stroke="none" 
	d="
M252.921173,376.796112 
	C252.223694,376.122437 251.086731,374.969238 251.080734,373.810211 
	C250.973679,353.147675 250.987259,332.484406 251.056213,311.821564 
	C251.059448,310.848389 251.817566,309.877716 252.657593,308.989136 
	C253.063400,331.486206 253.035736,353.900024 252.921173,376.796112 
z"/>
<path fill="#FFFFFF" opacity="1.000000" stroke="none" 
	d="
M403.278290,285.918884 
	C403.234650,266.313293 403.176178,246.707672 403.190613,227.102112 
	C403.191345,226.109634 403.821228,225.117615 404.578979,224.147202 
	C404.956146,244.647552 404.912567,265.126068 404.285736,285.744812 
	C403.702515,285.884979 403.278290,285.918884 403.278290,285.918884 
z"/>
<path fill="#FEEEEA" opacity="1.000000" stroke="none" 
	d="
M286.264160,285.118347 
	C287.141083,282.114990 288.472168,278.981110 289.541534,275.760345 
	C295.259979,258.537445 292.655823,242.484070 282.828033,227.194153 
	C289.582581,232.783020 292.777679,240.744873 293.730133,248.927917 
	C295.187195,261.446228 294.491577,274.043884 286.264160,285.118347 
z"/>
<path fill="#FEEEEA" opacity="1.000000" stroke="none" 
	d="
M351.589905,311.028625 
	C351.783783,311.690430 351.895599,312.638824 351.493530,313.248199 
	C338.934235,332.284424 338.585968,351.604370 350.020233,371.239990 
	C350.267303,371.664337 350.405518,372.152039 350.250549,372.853027 
	C346.936401,367.033356 342.455048,361.239532 341.319183,354.850922 
	C339.137817,342.581543 339.796600,330.082367 346.069092,318.675415 
	C347.529541,316.019440 349.521118,313.655518 351.589905,311.028625 
z"/>
<path fill="#FEEEEA" opacity="1.000000" stroke="none" 
	d="
M287.418030,452.953552 
	C287.240082,451.958496 287.141724,450.702972 287.584656,449.682312 
	C295.037659,432.507660 294.366547,415.895172 284.330566,399.872345 
	C284.190338,399.648468 284.298615,399.268951 284.579102,398.779968 
	C290.840790,404.603119 293.165497,412.304443 293.910889,420.320282 
	C294.962433,431.628784 293.945129,442.764099 287.418030,452.953552 
z"/>
<path fill="#FEF2EF" opacity="1.000000" stroke="none" 
	d="
M124.927483,300.551331 
	C124.782524,301.122070 124.387817,301.641602 124.253181,301.581207 
	C118.090652,298.817596 111.919907,296.067261 105.841537,293.126404 
	C104.922020,292.681519 103.854050,291.325317 103.849625,290.385986 
	C103.748047,268.833496 103.774315,247.280319 103.851532,225.727539 
	C103.853584,225.154541 104.688217,224.584518 105.577148,224.078033 
	C105.681252,225.528839 105.052063,226.913849 105.047905,228.300751 
	C104.985069,249.247360 105.004318,270.194244 105.004318,290.319550 
	C111.873734,293.758667 118.336388,296.994141 124.927483,300.551331 
z"/>
<path fill="#FEF1ED" opacity="1.000000" stroke="none" 
	d="
M117.974686,126.598053 
	C113.988937,125.724892 109.898346,124.369690 105.727516,123.339294 
	C93.703873,120.368912 82.149391,122.253006 70.542038,127.023514 
	C73.720535,125.228134 77.092072,122.709518 80.862640,121.735298 
	C93.680046,118.423561 106.178024,119.313988 117.974686,126.598053 
z"/>
<path fill="#FFFAF9" opacity="1.000000" stroke="none" 
	d="
M214.011368,303.378052 
	C219.510818,305.077759 225.157150,307.107635 231.189911,309.276398 
	C231.189911,319.162567 231.190002,329.107300 231.189880,339.052002 
	C231.189743,350.187073 231.247650,361.322754 231.122772,372.456451 
	C231.105179,374.025085 230.194077,375.583679 229.238342,377.091766 
	C229.184265,375.337433 229.932327,373.639801 229.939819,371.938873 
	C230.023331,352.955627 229.948029,333.971710 230.030960,314.988464 
	C230.047058,311.302399 229.086868,309.512878 224.936615,308.752747 
	C221.162460,308.061523 217.737274,305.464874 214.011368,303.378052 
z"/>
<path fill="#FEEEEA" opacity="1.000000" stroke="none" 
	d="
M62.031944,385.413788 
	C62.424488,385.020691 63.129993,384.695221 63.446056,384.919189 
	C77.112663,394.605469 92.126503,396.677460 108.616745,393.029846 
	C92.010986,399.589508 76.587639,395.838013 62.031944,385.413788 
z"/>
<path fill="#FEF2EE" opacity="1.000000" stroke="none" 
	d="
M414.830383,125.663712 
	C411.359009,125.081070 407.902161,124.053955 404.406036,123.184830 
	C393.261505,120.414307 382.528992,122.469719 371.554382,126.056015 
	C373.084595,124.866257 374.865540,123.270576 376.944977,122.598656 
	C389.214386,118.634064 401.376953,119.110641 413.309143,124.090508 
	C413.882324,124.329712 414.324036,124.883987 414.830383,125.663712 
z"/>
<path fill="#FDECE7" opacity="1.000000" stroke="none" 
	d="
M297.838440,98.669312 
	C293.694061,98.562134 292.048004,96.555328 292.360779,92.108124 
	C293.122589,81.276779 289.861023,71.357330 284.664062,61.925217 
	C291.294495,67.567467 292.707214,75.475647 293.981445,83.396317 
	C294.293365,85.335434 294.233368,87.393539 293.984467,89.351181 
	C293.500214,93.159782 294.310211,96.275703 297.838440,98.669312 
z"/>
<path fill="#FFFEFE" opacity="1.000000" stroke="none" 
	d="
M381.187744,224.538315 
	C381.736725,224.897186 383.116516,225.623886 383.120331,226.357788 
	C383.234985,248.310043 383.213562,270.263031 383.213562,292.643311 
	C380.395020,293.359314 377.739471,294.033875 374.872070,294.405121 
	C381.646179,292.626068 382.337799,287.970276 382.163116,281.644318 
	C381.685059,264.333588 382.014557,247.000946 381.971375,229.677124 
	C381.967407,228.087433 381.584229,226.498688 381.187744,224.538315 
z"/>
<path fill="#FEEEEB" opacity="1.000000" stroke="none" 
	d="
M267.946594,214.156204 
	C253.048370,205.772247 237.492142,205.243958 221.178986,210.108536 
	C225.215561,208.627731 229.475555,206.513031 233.886459,206.128281 
	C245.629761,205.103897 257.241547,205.893036 267.882019,212.858887 
	C267.987091,213.725479 267.966827,213.940842 267.946594,214.156204 
z"/>
<path fill="#FDECE7" opacity="1.000000" stroke="none" 
	d="
M360.059570,384.442871 
	C360.527649,384.075256 361.327301,383.752289 361.678436,384.019257 
	C372.357788,392.138672 384.485992,395.306244 397.739288,394.737549 
	C398.226410,394.716675 398.721710,394.885956 399.623138,395.047913 
	C390.642181,397.411255 381.534119,396.026306 372.870697,392.285065 
	C368.393280,390.351501 364.396179,387.305725 360.059570,384.442871 
z"/>
<path fill="#FEF2EE" opacity="1.000000" stroke="none" 
	d="
M341.517609,162.141098 
	C341.969604,167.399551 341.888367,172.873657 342.156219,178.330643 
	C342.591461,187.198837 346.226807,195.021729 350.237244,202.840515 
	C344.196014,197.648224 341.881744,190.485687 341.136780,183.046432 
	C340.452728,176.215958 341.087433,169.253433 341.517609,162.141098 
z"/>
<path fill="#FEEFEC" opacity="1.000000" stroke="none" 
	d="
M208.036804,131.417297 
	C208.550552,131.106140 209.389664,130.852005 209.806549,131.163315 
	C220.517548,139.161530 232.556854,142.524994 245.842499,141.694244 
	C246.654434,141.643478 247.484161,141.877213 248.669769,142.053848 
	C239.167465,144.238297 229.568359,143.298416 220.473923,138.995453 
	C216.186310,136.966797 212.257065,134.180695 208.036804,131.417297 
z"/>
<path fill="#FCE3DD" opacity="1.000000" stroke="none" 
	d="
M81.075546,224.437256 
	C84.061310,222.885773 84.008369,225.041000 84.002617,227.097488 
	C83.942123,248.738251 83.873810,270.378998 83.449242,291.914642 
	C83.045860,291.495880 83.000900,291.182220 82.955948,290.868561 
	C82.970245,270.135498 83.015541,249.402283 82.924271,228.669678 
	C82.918602,227.382339 81.839836,226.099716 81.075546,224.437256 
z"/>
<path fill="#FEF2EE" opacity="1.000000" stroke="none" 
	d="
M143.335587,191.031860 
	C142.933899,190.381348 142.658768,189.481384 142.874130,188.720215 
	C145.932358,177.910538 146.362411,167.186005 142.108704,156.551193 
	C141.951111,156.157211 142.206955,155.597885 142.595215,154.908691 
	C148.212967,165.445007 148.293854,176.475586 144.735062,187.704834 
	C144.401627,188.756912 144.039200,189.799789 143.335587,191.031860 
z"/>
<path fill="#FEEFEC" opacity="1.000000" stroke="none" 
	d="
M275.943970,50.565182 
	C275.219635,50.711117 274.158813,50.810711 273.561310,50.331982 
	C265.690094,44.025089 256.689026,40.476372 246.384216,38.822098 
	C246.005676,38.536716 246.003983,38.169422 246.003983,38.169422 
	C257.683319,37.902077 267.401062,42.476650 275.943970,50.565182 
z"/>
<path fill="#FEF2EF" opacity="1.000000" stroke="none" 
	d="
M224.022614,477.398010 
	C226.095871,477.345459 228.343079,477.960815 230.573288,477.904449 
	C239.127304,477.688141 247.675873,477.256287 256.639648,477.006592 
	C251.279495,481.077789 244.730057,480.595032 238.305893,480.057343 
	C233.569199,479.660889 228.892303,478.549957 224.022614,477.398010 
z"/>
<path fill="#FDE7E1" opacity="1.000000" stroke="none" 
	d="
M189.170807,98.718124 
	C189.670029,98.804626 190.507965,99.133163 190.579605,99.583595 
	C192.022034,108.651375 196.480255,116.317619 201.256714,123.877365 
	C193.341034,117.427368 190.707962,108.474533 189.170807,98.718124 
z"/>
<path fill="#FDECE7" opacity="1.000000" stroke="none" 
	d="
M192.190460,447.285400 
	C192.850754,447.557251 193.661774,448.039215 194.193588,448.734711 
	C198.969711,454.980316 203.696823,461.263428 208.184143,467.824463 
	C199.684464,463.576538 195.540848,455.897461 192.190460,447.285400 
z"/>
<path fill="#FEEFEC" opacity="1.000000" stroke="none" 
	d="
M444.067200,333.989990 
	C442.039948,324.854462 437.823608,316.758606 432.719910,309.099182 
	C440.073059,315.541077 443.805023,323.737152 444.728455,333.586975 
	C444.456329,333.997253 444.067200,333.989990 444.067200,333.989990 
z"/>
<path fill="#FDECE7" opacity="1.000000" stroke="none" 
	d="
M198.554260,227.062683 
	C198.765289,227.803574 198.930298,228.854401 198.497299,229.510681 
	C193.460648,237.144638 190.679596,245.536240 189.487152,254.804932 
	C188.126297,244.412567 192.430450,235.557236 198.554260,227.062683 
z"/>
<path fill="#FEF1ED" opacity="1.000000" stroke="none" 
	d="
M444.070465,163.988693 
	C440.471344,156.050079 436.872223,148.111465 433.703430,140.060822 
	C440.720306,146.305710 443.769135,154.317291 444.729004,163.589417 
	C444.458710,163.999329 444.070465,163.988693 444.070465,163.988693 
z"/>
<path fill="#FCE0D9" opacity="1.000000" stroke="none" 
	d="
M43.551010,158.092682 
	C43.848312,167.469894 43.778599,177.015045 43.435799,186.809341 
	C39.741276,177.456680 40.626377,167.858032 43.551010,158.092682 
z"/>
<path fill="#FEEEEA" opacity="1.000000" stroke="none" 
	d="
M198.554062,59.064110 
	C198.756134,59.792747 198.903305,60.821186 198.476578,61.475151 
	C193.481949,69.129631 190.644608,77.506180 189.491333,86.796982 
	C188.448593,76.516197 192.261383,67.501404 198.554062,59.064110 
z"/>
<path fill="#FDEAE6" opacity="1.000000" stroke="none" 
	d="
M423.972168,300.588867 
	C422.746918,300.431274 421.368622,300.011810 420.046661,299.457886 
	C415.497955,297.551971 410.890015,295.758209 406.478363,293.571350 
	C405.072083,292.874298 404.206818,291.085724 403.381592,289.411530 
	C403.669159,289.026459 404.113739,288.944183 404.113739,288.944183 
	C405.766541,290.279114 407.263947,291.902588 409.102386,292.892914 
	C413.937378,295.497437 418.920715,297.826508 423.972168,300.588867 
z"/>
<path fill="#FDEAE6" opacity="1.000000" stroke="none" 
	d="
M145.321014,355.050781 
	C144.620209,354.565491 144.022980,353.882294 144.012711,353.190399 
	C143.901489,345.683868 143.882401,338.175964 143.902466,330.226807 
	C144.972275,333.322449 146.644592,336.827148 146.819412,340.404999 
	C147.053177,345.189911 146.125854,350.031555 145.321014,355.050781 
z"/>
<path fill="#FDECE7" opacity="1.000000" stroke="none" 
	d="
M435.414734,374.968445 
	C435.211304,374.308746 435.178467,373.456116 435.476166,372.741119 
	C438.257202,366.061310 441.094879,359.405151 444.197144,352.381348 
	C444.478149,352.020599 444.827637,352.016327 444.827637,352.016327 
	C444.759918,360.803558 440.798126,368.040009 435.414734,374.968445 
z"/>
<path fill="#FDEAE6" opacity="1.000000" stroke="none" 
	d="
M245.541428,38.096291 
	C246.003983,38.169422 246.005676,38.536716 246.004440,38.720360 
	C236.560928,38.627804 227.389664,39.809116 218.377838,43.716400 
	C217.968964,43.262489 217.954163,43.059540 217.939377,42.856590 
	C224.586777,38.659313 231.937622,37.636326 239.612747,38.008053 
	C241.430771,38.096111 243.256622,38.022434 245.541428,38.096291 
z"/>
<path fill="#FEEFEC" opacity="1.000000" stroke="none" 
	d="
M340.845093,125.681038 
	C334.266022,122.229477 327.697815,118.426598 321.117767,114.275116 
	C327.689240,117.727585 334.272614,121.528648 340.845093,125.681038 
z"/>
<path fill="#FEF1ED" opacity="1.000000" stroke="none" 
	d="
M139.920685,148.722839 
	C135.042038,143.525146 130.237671,137.945892 125.763016,132.138275 
	C132.701569,135.716232 137.262314,141.255386 139.920685,148.722839 
z"/>
<path fill="#FDECE7" opacity="1.000000" stroke="none" 
	d="
M189.079041,262.410339 
	C191.656647,269.516541 194.147049,277.069275 196.268265,284.855835 
	C191.066544,278.464783 188.584869,271.109558 189.079041,262.410339 
z"/>
<path fill="#FDE9E4" opacity="1.000000" stroke="none" 
	d="
M200.560120,393.920105 
	C201.154694,397.208740 199.369598,396.252045 197.795166,395.258881 
	C192.674820,392.028961 187.603195,388.721771 182.796707,385.170105 
	C187.205475,387.231750 191.307938,389.608582 195.467117,391.881653 
	C196.969467,392.702728 198.607788,393.274994 200.560120,393.920105 
z"/>
<path fill="#FDDED6" opacity="1.000000" stroke="none" 
	d="
M444.019104,164.455383 
	C444.070465,163.988693 444.458710,163.999329 444.652802,164.005646 
	C444.968628,169.764862 445.090363,175.517746 445.028015,181.667603 
	C444.551880,176.350403 444.259827,170.636230 444.019104,164.455383 
z"/>
<path fill="#FDDED6" opacity="1.000000" stroke="none" 
	d="
M445.029266,351.631836 
	C444.827637,352.016327 444.478149,352.020599 444.303406,352.017914 
	C444.076599,346.318298 444.024536,340.621368 444.019836,334.457214 
	C444.067200,333.989990 444.456329,333.997253 444.650848,334.002777 
	C444.973877,339.754639 445.102386,345.500977 445.029266,351.631836 
z"/>
<path fill="#FDEAE6" opacity="1.000000" stroke="none" 
	d="
M82.601288,291.019592 
	C83.000900,291.182220 83.045860,291.495880 83.157669,292.280121 
	C77.643440,295.002441 72.062378,297.254181 66.184814,299.216156 
	C71.341087,296.341125 76.793861,293.755859 82.601288,291.019592 
z"/>
<path fill="#FEEEEA" opacity="1.000000" stroke="none" 
	d="
M182.061111,410.444153 
	C187.664368,410.493347 191.176575,414.256836 190.446335,419.203247 
	C190.184601,420.976166 190.014664,422.762695 189.483398,424.758026 
	C189.107925,424.477448 188.923477,423.956543 189.015259,423.490021 
	C190.218781,417.372101 187.859619,413.188904 182.061111,410.444153 
z"/>
<path fill="#FEEEEA" opacity="1.000000" stroke="none" 
	d="
M208.557587,48.941120 
	C205.701385,52.480999 202.496780,56.052349 199.110413,59.254337 
	C202.022156,55.580849 205.115662,52.276722 208.557587,48.941120 
z"/>
<path fill="#FDECE7" opacity="1.000000" stroke="none" 
	d="
M208.564331,216.936081 
	C205.703583,220.478531 202.493942,224.054550 199.108017,227.256958 
	C202.026321,223.578812 205.120880,220.274231 208.564331,216.936081 
z"/>
<path fill="#FDECE7" opacity="1.000000" stroke="none" 
	d="
M163.937637,372.554810 
	C162.095413,372.111877 160.004181,371.561371 158.187134,370.528534 
	C155.520386,369.012604 153.049667,367.151855 150.788696,365.167206 
	C155.325073,367.341431 159.568161,369.786499 163.937637,372.554810 
z"/>
<path fill="#FEEFEC" opacity="1.000000" stroke="none" 
	d="
M51.946430,205.446045 
	C55.460995,208.271835 59.007023,211.445740 62.231071,214.856140 
	C58.598694,211.993149 55.288292,208.893646 51.946430,205.446045 
z"/>
<path fill="#FEEFEC" opacity="1.000000" stroke="none" 
	d="
M44.172348,191.232117 
	C46.271885,194.446335 48.377468,197.977966 50.208069,201.814209 
	C48.014858,198.595718 46.096630,195.072617 44.172348,191.232117 
z"/>
<path fill="#FEEEEA" opacity="1.000000" stroke="none" 
	d="
M53.941711,377.358765 
	C56.783379,379.542999 59.666004,382.081635 62.228363,384.856445 
	C59.266289,382.632751 56.624477,380.172913 53.941711,377.358765 
z"/>
<path fill="#FEEEEA" opacity="1.000000" stroke="none" 
	d="
M268.142151,214.431671 
	C267.966827,213.940842 267.987091,213.725479 268.038086,213.187195 
	C270.654388,214.659164 273.239899,216.454041 275.942932,218.562851 
	C273.486176,217.486893 270.911957,216.097015 268.142151,214.431671 
z"/>
<path fill="#FDECE7" opacity="1.000000" stroke="none" 
	d="
M195.939667,285.451233 
	C197.814560,287.285980 199.720795,289.476074 201.260559,291.874939 
	C199.253067,289.991364 197.612030,287.898926 195.939667,285.451233 
z"/>
<path fill="#FEF1ED" opacity="1.000000" stroke="none" 
	d="
M434.040070,139.527298 
	C432.169678,138.375229 430.279724,136.876465 428.743744,135.145477 
	C430.738678,136.335678 432.379608,137.758148 434.040070,139.527298 
z"/>
<path fill="#FEEEEA" opacity="1.000000" stroke="none" 
	d="
M214.586639,44.926521 
	C213.096970,46.440403 211.253738,48.003269 209.154678,49.238926 
	C210.676926,47.599644 212.455002,46.287575 214.586639,44.926521 
z"/>
<path fill="#FDECE7" opacity="1.000000" stroke="none" 
	d="
M214.588959,212.921967 
	C213.105286,214.431610 211.267258,215.988693 209.162704,217.230530 
	C210.675644,215.599976 212.455124,214.284698 214.588959,212.921967 
z"/>
<path fill="#FEF1ED" opacity="1.000000" stroke="none" 
	d="
M125.971558,131.593201 
	C123.941971,130.785904 121.783226,129.659546 119.837524,128.201599 
	C121.981178,129.004730 123.911789,130.139435 125.971558,131.593201 
z"/>
<path fill="#FEF1ED" opacity="1.000000" stroke="none" 
	d="
M277.947510,389.568085 
	C276.256317,388.771362 274.446259,387.664368 272.841522,386.212311 
	C274.640747,386.997437 276.234711,388.127655 277.947510,389.568085 
z"/>
<path fill="#FEF1ED" opacity="1.000000" stroke="none" 
	d="
M272.986450,385.611084 
	C270.912903,384.779205 268.709473,383.626587 266.789673,382.181152 
	C269.001068,383.022339 270.928802,384.156342 272.986450,385.611084 
z"/>
<path fill="#FEF2EE" opacity="1.000000" stroke="none" 
	d="
M349.940186,203.427551 
	C351.272217,204.430054 352.641083,205.773270 354.036530,207.476715 
	C352.701080,206.480713 351.339050,205.124481 349.940186,203.427551 
z"/>
<path fill="#FEEFEC" opacity="1.000000" stroke="none" 
	d="
M433.052948,308.548279 
	C431.512329,307.728943 429.943054,306.561127 428.736633,305.153137 
	C430.407745,306.008575 431.716003,307.104187 433.052948,308.548279 
z"/>
<path fill="#FEEEEA" opacity="1.000000" stroke="none" 
	d="
M280.054871,222.546478 
	C278.497742,221.710083 276.912231,220.525406 275.718750,219.133270 
	C277.416046,220.016617 278.721283,221.107407 280.054871,222.546478 
z"/>
<path fill="#FDEAE6" opacity="1.000000" stroke="none" 
	d="
M46.593384,320.037292 
	C46.234062,321.828857 45.551422,323.757019 44.515873,325.739319 
	C44.865334,323.920288 45.567699,322.047119 46.593384,320.037292 
z"/>
<path fill="#FCE3DD" opacity="1.000000" stroke="none" 
	d="
M142.021179,385.410034 
	C143.687988,385.858643 145.477661,386.633331 147.112701,387.772308 
	C145.353394,387.336426 143.748703,386.536255 142.021179,385.410034 
z"/>
<path fill="#FEF1ED" opacity="1.000000" stroke="none" 
	d="
M281.922180,394.723907 
	C280.668549,393.758240 279.498077,392.457306 278.730103,391.052887 
	C280.090149,392.095825 281.047729,393.242218 281.922180,394.723907 
z"/>
<path fill="#FEEEEA" opacity="1.000000" stroke="none" 
	d="
M53.572212,139.045929 
	C53.076378,140.493744 52.271683,142.057373 51.185223,143.263977 
	C51.690090,141.658554 52.476719,140.410141 53.572212,139.045929 
z"/>
<path fill="#FEEEEA" opacity="1.000000" stroke="none" 
	d="
M62.616867,130.917145 
	C61.725189,132.146317 60.499092,133.426727 59.102402,134.293213 
	C60.048695,132.908981 61.165573,131.938690 62.616867,130.917145 
z"/>
<path fill="#FDEAE6" opacity="1.000000" stroke="none" 
	d="
M53.571358,309.044006 
	C53.078102,310.488708 52.275166,312.047852 51.187622,313.256165 
	C51.689236,311.656372 52.475456,310.407440 53.571358,309.044006 
z"/>
<path fill="#FEEEEA" opacity="1.000000" stroke="none" 
	d="
M349.928284,373.407776 
	C351.131653,374.247559 352.376892,375.421814 353.263123,376.845398 
	C351.926086,375.977203 350.948090,374.859711 349.928284,373.407776 
z"/>
<path fill="#FEEEEA" opacity="1.000000" stroke="none" 
	d="
M50.564022,143.053986 
	C50.128212,144.702301 49.371735,146.477249 48.233795,148.111618 
	C48.649338,146.374222 49.446346,144.777435 50.564022,143.053986 
z"/>
<path fill="#FEF1ED" opacity="1.000000" stroke="none" 
	d="
M262.933350,379.566711 
	C261.193726,379.540833 259.292236,379.176453 257.193787,378.488342 
	C258.921722,378.519165 260.846588,378.873657 262.933350,379.566711 
z"/>
<path fill="#FDEAE6" opacity="1.000000" stroke="none" 
	d="
M48.557438,316.055786 
	C48.481480,317.340698 48.078751,318.756073 47.260365,320.078064 
	C47.306694,318.718536 47.768681,317.452362 48.557438,316.055786 
z"/>
<path fill="#FEEEEA" opacity="1.000000" stroke="none" 
	d="
M285.221405,456.151428 
	C285.493134,455.033051 286.075745,453.753815 286.873505,452.785370 
	C286.569855,454.060974 286.051056,455.025757 285.221405,456.151428 
z"/>
<path fill="#FCE3DD" opacity="1.000000" stroke="none" 
	d="
M146.988907,388.372345 
	C148.034256,388.506073 149.194412,388.954651 150.149170,389.765991 
	C148.997101,389.648254 148.050415,389.167725 146.988907,388.372345 
z"/>
<path fill="#FDEAE6" opacity="1.000000" stroke="none" 
	d="
M65.642807,298.911163 
	C65.142731,299.744446 64.311935,300.637970 63.185699,301.225952 
	C63.697536,300.270752 64.504814,299.621063 65.642807,298.911163 
z"/>
<path fill="#FDEAE6" opacity="1.000000" stroke="none" 
	d="
M61.681000,301.898071 
	C61.109360,302.780701 60.207561,303.726807 59.115814,304.279266 
	C59.734192,303.244263 60.542515,302.602905 61.681000,301.898071 
z"/>
<path fill="#FCE3DD" opacity="1.000000" stroke="none" 
	d="
M138.992889,383.376801 
	C140.010956,383.502289 141.143631,383.943024 142.117081,384.760498 
	C141.007736,384.655518 140.057617,384.173798 138.992889,383.376801 
z"/>
<path fill="#FDEAE6" opacity="1.000000" stroke="none" 
	d="
M50.596771,313.017395 
	C50.460110,314.123627 50.016628,315.345428 49.230751,316.243164 
	C49.355556,314.990356 49.822758,314.061646 50.596771,313.017395 
z"/>
<path fill="#FDECE7" opacity="1.000000" stroke="none" 
	d="
M167.007355,374.627991 
	C165.894547,374.465149 164.661911,373.992584 163.756714,373.206665 
	C165.018631,373.368317 165.953094,373.843292 167.007355,374.627991 
z"/>
<path fill="#FCE3DD" opacity="1.000000" stroke="none" 
	d="
M136.017273,381.390594 
	C137.039841,381.530334 138.166840,381.986511 139.123199,382.787384 
	C138.008926,382.657074 137.065308,382.182068 136.017273,381.390594 
z"/>
<path fill="#FEEEEA" opacity="1.000000" stroke="none" 
	d="
M217.613129,42.912231 
	C217.954163,43.059540 217.968964,43.262489 218.004364,43.769974 
	C217.128296,44.573689 216.231644,45.072865 215.123474,45.238373 
	C215.703613,44.259098 216.495255,43.613487 217.613129,42.912231 
z"/>
<path fill="#FEEFEC" opacity="1.000000" stroke="none" 
	d="
M49.908783,202.344620 
	C50.763336,202.871124 51.684219,203.726639 52.257744,204.840607 
	C51.265293,204.290573 50.620201,203.482117 49.908783,202.344620 
z"/>
<path fill="#FEEEEA" opacity="1.000000" stroke="none" 
	d="
M178.997711,408.363129 
	C180.106796,408.550842 181.330124,409.050262 182.231934,409.825867 
	C180.977585,409.626282 180.044769,409.150574 178.997711,408.363129 
z"/>
<path fill="#FEEFEC" opacity="1.000000" stroke="none" 
	d="
M62.042229,215.419556 
	C62.883526,215.442505 63.845158,215.779053 64.927719,216.478699 
	C64.086624,216.472229 63.124596,216.102692 62.042229,215.419556 
z"/>
<path fill="#FEEEEA" opacity="1.000000" stroke="none" 
	d="
M282.099823,225.691650 
	C281.213501,225.102966 280.260590,224.184845 279.713440,223.099152 
	C280.757233,223.741791 281.395203,224.552002 282.099823,225.691650 
z"/>
<path fill="#FEEEEA" opacity="1.000000" stroke="none" 
	d="
M65.592995,128.928238 
	C65.148293,129.732910 64.373337,130.579498 63.232796,131.185638 
	C63.665718,130.286850 64.464233,129.628494 65.592995,128.928238 
z"/>
<path fill="#FDECE7" opacity="1.000000" stroke="none" 
	d="
M356.714050,381.187622 
	C357.453857,381.363403 358.415283,381.858337 359.164032,382.744629 
	C358.279449,382.592865 357.607605,382.049805 356.714050,381.187622 
z"/>
<path fill="#FEEEEA" opacity="1.000000" stroke="none" 
	d="
M358.057098,305.273743 
	C357.473663,305.651428 356.655060,306.011108 355.980225,306.710022 
	C356.689972,306.451385 357.255981,305.853516 358.057098,305.273743 
z"/>
<path fill="#FEEFEC" opacity="1.000000" stroke="none" 
	d="
M427.965576,303.586365 
	C427.064453,303.486450 426.042389,303.074005 424.995911,302.248108 
	C425.929230,302.314392 426.886932,302.794128 427.965576,303.586365 
z"/>
<path fill="#FDE9E4" opacity="1.000000" stroke="none" 
	d="
M204.745361,390.065521 
	C204.318558,390.384796 203.606598,390.851135 202.803162,391.659241 
	C203.294556,391.404877 203.877396,390.808746 204.745361,390.065521 
z"/>
<path fill="#FDE9E4" opacity="1.000000" stroke="none" 
	d="
M182.948456,384.580078 
	C182.347839,384.820465 181.655060,384.773285 180.747375,384.449463 
	C181.307068,384.212708 182.081696,384.252563 182.948456,384.580078 
z"/>
<path fill="#FEF1ED" opacity="1.000000" stroke="none" 
	d="
M426.919739,132.554153 
	C426.176605,132.846130 425.308838,132.828888 424.301056,132.404144 
	C425.039062,132.079407 425.917053,132.162170 426.919739,132.554153 
z"/>
<path fill="#FCD4CB" opacity="1.000000" stroke="none" 
	d="
M404.058350,288.582458 
	C404.113739,288.944183 403.669159,289.026459 403.443176,289.030945 
	C403.158020,288.249329 403.098846,287.463287 403.158997,286.298035 
	C403.278290,285.918884 403.702515,285.884979 403.903229,285.956604 
	C404.070251,286.759064 404.036591,287.489899 404.058350,288.582458 
z"/>
<path fill="#FDE9E4" opacity="1.000000" stroke="none" 
	d="
M206.303070,389.149200 
	C206.148422,389.351044 205.733185,389.556854 205.119293,389.903320 
	C205.294586,389.747009 205.668518,389.450073 206.303070,389.149200 
z"/>
<path fill="#FDECE7" opacity="1.000000" stroke="none" 
	d="
M432.237732,377.334625 
	C432.520142,376.869598 433.127563,376.630554 433.935974,376.117432 
	C433.612213,376.415741 433.087494,376.988159 432.237732,377.334625 
z"/>
<path fill="#FEF1ED" opacity="1.000000" stroke="none" 
	d="
M265.008362,380.644897 
	C264.362701,380.864777 263.593842,380.779144 262.918213,380.264221 
	C263.636017,380.003052 264.260590,380.171204 265.008362,380.644897 
z"/>
<path fill="#FEEEEA" opacity="1.000000" stroke="none" 
	d="
M47.636093,147.995636 
	C47.856789,148.611252 47.770966,149.350266 47.259338,150.046265 
	C46.998882,149.375168 47.164230,148.747101 47.636093,147.995636 
z"/>
<path fill="#FEEEEA" opacity="1.000000" stroke="none" 
	d="
M46.637779,149.997452 
	C46.860756,150.624634 46.777622,151.373260 46.264492,152.058823 
	C46.000221,151.370132 46.165947,150.744522 46.637779,149.997452 
z"/>
<path fill="#FEEEEA" opacity="1.000000" stroke="none" 
	d="
M45.597000,152.034119 
	C45.896351,152.525024 45.887520,153.140656 45.514935,153.915558 
	C45.197056,153.436172 45.242935,152.797516 45.597000,152.034119 
z"/>
<path fill="#FDECE7" opacity="1.000000" stroke="none" 
	d="
M209.017151,469.390991 
	C209.553101,469.150421 210.208435,469.213715 210.941620,469.687317 
	C210.391815,469.963379 209.764191,469.829102 209.017151,469.390991 
z"/>
<path fill="#FDECE7" opacity="1.000000" stroke="none" 
	d="
M150.961334,364.588501 
	C150.482025,364.892944 149.882767,364.890442 149.116058,364.527039 
	C149.579559,364.204590 150.210464,364.243042 150.961334,364.588501 
z"/>
<path fill="#FEF1ED" opacity="1.000000" stroke="none" 
	d="
M266.994019,381.624634 
	C266.398285,381.851501 265.677277,381.773621 264.971008,381.260773 
	C265.613434,380.990509 266.241058,381.155212 266.994019,381.624634 
z"/>
<path fill="#FEEFEC" opacity="1.000000" stroke="none" 
	d="
M280.904327,56.831955 
	C280.336578,56.522785 279.830322,55.880512 279.721771,55.086205 
	C280.401611,55.455727 280.683716,55.977287 280.904327,56.831955 
z"/>
<path fill="#FEEEEA" opacity="1.000000" stroke="none" 
	d="
M67.680786,128.090118 
	C67.395287,128.661316 66.800697,129.156418 66.073471,129.263397 
	C66.417786,128.588196 66.894737,128.301117 67.680786,128.090118 
z"/>
<path fill="#FCE3DD" opacity="1.000000" stroke="none" 
	d="
M150.015472,390.396301 
	C150.576111,390.150055 151.251602,390.210663 151.972687,390.692230 
	C151.388977,390.976532 150.759644,390.839874 150.015472,390.396301 
z"/>
<path fill="#FEF1ED" opacity="1.000000" stroke="none" 
	d="
M120.003067,127.637856 
	C119.388184,127.857590 118.647842,127.771866 117.951332,127.257912 
	C118.622643,126.997253 119.250122,127.164825 120.003067,127.637856 
z"/>
<path fill="#FEF1ED" opacity="1.000000" stroke="none" 
	d="
M279.052094,390.688232 
	C278.606232,390.879456 278.069519,390.810730 277.792297,390.299500 
	C278.354950,390.047455 278.658081,390.237885 279.052094,390.688232 
z"/>
<path fill="#FDECE7" opacity="1.000000" stroke="none" 
	d="
M207.937027,468.293945 
	C208.326797,468.134521 208.807526,468.244171 209.126587,468.751465 
	C208.652588,468.953766 208.340302,468.758362 207.937027,468.293945 
z"/>
<path fill="#FEEEEA" opacity="1.000000" stroke="none" 
	d="
M283.875336,397.866547 
	C283.878143,397.739594 283.823303,397.428741 283.510376,397.180115 
	C283.547180,397.251617 283.735657,397.398407 283.875336,397.866547 
z"/>
<path fill="#FDE9E4" opacity="1.000000" stroke="none" 
	d="
M201.863297,392.717468 
	C201.994904,393.045654 201.866241,393.589691 201.287460,394.061646 
	C201.092575,393.637451 201.347794,393.285370 201.863297,392.717468 
z"/>
<path fill="#FEEFEC" opacity="1.000000" stroke="none" 
	d="
M277.047089,51.680447 
	C276.643097,51.878540 276.148590,51.814785 275.845398,51.299644 
	C276.343323,51.038372 276.649963,51.228481 277.047089,51.680447 
z"/>
<path fill="#FDECE7" opacity="1.000000" stroke="none" 
	d="
M358.936432,383.295166 
	C359.373108,383.132843 359.898804,383.235321 360.184570,383.737610 
	C359.638245,383.944946 359.331848,383.752472 358.936432,383.295166 
z"/>
<path fill="#FEEFEC" opacity="1.000000" stroke="none" 
	d="
M278.068848,52.717068 
	C277.599152,52.866241 277.038544,52.751896 276.772095,52.253849 
	C277.370117,52.064617 277.674042,52.259079 278.068848,52.717068 
z"/>
<path fill="#FEEFEC" opacity="1.000000" stroke="none" 
	d="
M279.044312,53.677414 
	C278.673218,53.875538 278.210754,53.809521 277.885010,53.292633 
	C278.332123,53.032265 278.642517,53.222767 279.044312,53.677414 
z"/>
<path fill="#FDEAE6" opacity="1.000000" stroke="none" 
	d="
M54.698589,307.938995 
	C54.867592,308.389709 54.773689,308.927734 54.273224,309.202515 
	C54.056332,308.634979 54.246006,308.330627 54.698589,307.938995 
z"/>
<path fill="#FDECE7" opacity="1.000000" stroke="none" 
	d="
M211.155197,470.109802 
	C211.173462,470.266785 211.178619,470.645172 211.539612,470.832458 
	C211.895447,470.641296 211.435425,470.686005 211.435425,470.686005 
	C211.435425,470.686005 211.142075,470.331207 211.155197,470.109802 
z"/>
<path fill="#FEEEEA" opacity="1.000000" stroke="none" 
	d="
M353.956787,378.319702 
	C354.330048,378.203491 354.827881,378.401093 355.219879,379.053589 
	C354.769806,379.216827 354.425629,378.925171 353.956787,378.319702 
z"/>
<path fill="#FCE3DD" opacity="1.000000" stroke="none" 
	d="
M152.087189,391.060974 
	C152.052170,391.060181 151.926956,391.247742 151.875275,391.453735 
	C151.852585,391.544128 151.979828,391.672119 152.325134,391.800018 
	C152.327682,391.722626 152.132904,391.535889 152.087189,391.060974 
z"/>
<path fill="#FDECE7" opacity="1.000000" stroke="none" 
	d="
M216.096878,212.747543 
	C215.972504,213.159393 215.741852,213.298370 215.194336,213.186859 
	C215.248520,212.782455 215.619553,212.628555 216.096878,212.747543 
z"/>
<path fill="#FEF2EF" opacity="1.000000" stroke="none" 
	d="
M126.069504,301.723083 
	C125.605339,301.868500 125.048233,301.749603 124.776581,301.249146 
	C125.366875,301.064667 125.671715,301.261719 126.069504,301.723083 
z"/>
<path fill="#FDEAE6" opacity="1.000000" stroke="none" 
	d="
M62.689564,300.946198 
	C62.857708,301.275238 62.754200,301.696106 62.245579,302.056580 
	C62.032948,301.676819 62.225426,301.357422 62.689564,300.946198 
z"/>
<path fill="#FDECE7" opacity="1.000000" stroke="none" 
	d="
M201.932495,293.161316 
	C202.195068,292.910461 202.456924,293.046722 202.664368,293.607910 
	C202.387253,293.814270 202.161194,293.652802 201.932495,293.161316 
z"/>
<path fill="#FDECE7" opacity="1.000000" stroke="none" 
	d="
M200.953766,292.321777 
	C201.296158,292.127655 201.728668,292.200348 202.078033,292.700378 
	C201.677887,292.947998 201.360870,292.768311 200.953766,292.321777 
z"/>
<path fill="#FEEFEC" opacity="1.000000" stroke="none" 
	d="
M207.088776,130.209381 
	C207.571518,130.141373 207.989319,130.353668 208.169708,130.844391 
	C207.629471,130.911789 207.326630,130.700745 207.088776,130.209381 
z"/>
<path fill="#FEEEEA" opacity="1.000000" stroke="none" 
	d="
M283.057983,226.706848 
	C282.743683,226.855942 282.331604,226.731308 281.956696,226.222244 
	C282.315979,226.036255 282.638092,226.234680 283.057983,226.706848 
z"/>
<path fill="#FEF1ED" opacity="1.000000" stroke="none" 
	d="
M428.058441,133.698624 
	C427.615601,133.873260 427.080566,133.785995 426.799255,133.278473 
	C427.357361,133.051056 427.661835,133.243896 428.058441,133.698624 
z"/>
<path fill="#FCE3DD" opacity="1.000000" stroke="none" 
	d="
M80.195526,223.897766 
	C80.389946,223.783966 80.838997,223.718704 81.114563,223.883148 
	C80.777443,224.057327 80.613792,224.001816 80.195526,223.897766 
z"/>
<path fill="#FDEAE6" opacity="1.000000" stroke="none" 
	d="
M425.065918,301.735077 
	C424.668579,301.868652 424.181610,301.730072 423.867981,301.224182 
	C424.352966,301.058929 424.664642,301.260925 425.065918,301.735077 
z"/>
<path fill="#FEEEEA" opacity="1.000000" stroke="none" 
	d="
M58.675705,133.955444 
	C58.878563,134.350388 58.818996,134.834183 58.303574,135.142319 
	C58.036232,134.659210 58.224754,134.351746 58.675705,133.955444 
z"/>
<path fill="#FEF1ED" opacity="1.000000" stroke="none" 
	d="
M429.059967,134.702545 
	C428.633545,134.871994 428.114319,134.777466 427.820862,134.268936 
	C428.353485,134.049484 428.660309,134.244034 429.059967,134.702545 
z"/>
<path fill="#FCE0D9" opacity="1.000000" stroke="none" 
	d="
M44.193962,188.552277 
	C44.251518,188.605621 44.494171,188.507843 44.494171,188.507843 
	C44.494171,188.507843 44.386951,188.266327 44.297699,188.312927 
	C44.208443,188.359512 44.136402,188.498947 44.193962,188.552277 
z"/>
<path fill="#FEEEEA" opacity="1.000000" stroke="none" 
	d="
M57.695656,134.942703 
	C57.870045,135.346436 57.779133,135.841156 57.269966,136.148422 
	C57.044594,135.651871 57.237476,135.342789 57.695656,134.942703 
z"/>
<path fill="#FEEEEA" opacity="1.000000" stroke="none" 
	d="
M56.697521,135.941467 
	C56.870426,136.360062 56.778782,136.869171 56.271294,137.166443 
	C56.047958,136.647079 56.240467,136.339523 56.697521,135.941467 
z"/>
<path fill="#FEEEEA" opacity="1.000000" stroke="none" 
	d="
M55.690002,136.946106 
	C55.871704,137.345825 55.788918,137.836105 55.278259,138.144775 
	C55.042095,137.654327 55.233807,137.345490 55.690002,136.946106 
z"/>
<path fill="#FEEEEA" opacity="1.000000" stroke="none" 
	d="
M54.703979,137.937347 
	C54.868835,138.393677 54.770924,138.939499 54.269527,139.212341 
	C54.057770,138.635208 54.249493,138.331039 54.703979,137.937347 
z"/>
<path fill="#FEEEEA" opacity="1.000000" stroke="none" 
	d="
M355.795502,307.154114 
	C355.577881,307.181824 355.117004,307.281006 354.878357,307.732269 
	C355.251160,307.798096 355.401703,307.511841 355.795502,307.154114 
z"/>
<path fill="#FEEEEA" opacity="1.000000" stroke="none" 
	d="
M352.946869,377.310608 
	C353.322449,377.131226 353.789551,377.218201 354.115234,377.729980 
	C353.662018,377.962128 353.350220,377.769531 352.946869,377.310608 
z"/>
<path fill="#FEEEEA" opacity="1.000000" stroke="none" 
	d="
M53.312683,376.428528 
	C53.391880,376.587524 53.508003,376.964478 53.867905,377.080627 
	C54.111679,376.819794 53.694916,376.896149 53.694916,376.896149 
	C53.694916,376.896149 53.349617,376.646484 53.312683,376.428528 
z"/>
<path fill="#FDECE7" opacity="1.000000" stroke="none" 
	d="
M434.280762,376.041748 
	C434.137909,375.629211 434.269470,375.148010 434.771301,374.855560 
	C434.946136,375.353882 434.750671,375.663452 434.280762,376.041748 
z"/>
<path fill="#FDECE7" opacity="1.000000" stroke="none" 
	d="
M167.906921,375.775146 
	C167.425201,375.843170 167.016861,375.634369 166.838593,375.152588 
	C167.372543,375.085846 167.676422,375.292084 167.906921,375.775146 
z"/>
<path fill="#FEEFEC" opacity="1.000000" stroke="none" 
	d="
M280.057922,54.697285 
	C279.626923,54.872372 279.104492,54.784512 278.815674,54.276543 
	C279.355011,54.049068 279.660767,54.241703 280.057922,54.697285 
z"/>
<path fill="#FEEEEA" opacity="1.000000" stroke="none" 
	d="
M352.863251,309.717010 
	C352.994659,310.044189 352.868713,310.591522 352.287537,311.065979 
	C352.090179,310.641144 352.348053,310.289185 352.863251,309.717010 
z"/>
<path fill="#FDE7E1" opacity="1.000000" stroke="none" 
	d="
M200.978882,124.355377 
	C201.244843,124.089630 201.604187,124.101624 202.039398,124.479729 
	C201.767609,124.774933 201.419952,124.704033 200.978882,124.355377 
z"/>
<path fill="#FEEEEA" opacity="1.000000" stroke="none" 
	d="
M354.547699,308.254944 
	C354.758087,308.206604 354.337555,307.994720 354.376587,307.900299 
	C354.415588,307.805878 354.050629,307.993042 354.050629,307.993042 
	C354.050629,307.993042 354.337311,308.303284 354.547699,308.254944 
z"/>
<path fill="#FDECE7" opacity="1.000000" stroke="none" 
	d="
M432.518188,377.454956 
	C432.484528,377.529175 432.545959,377.316071 432.531311,377.108337 
	C432.526001,377.032440 432.339874,376.969299 432.117218,377.033234 
	C432.193176,377.167358 432.388184,377.168579 432.518188,377.454956 
z"/>
<path fill="#FDEAE6" opacity="1.000000" stroke="none" 
	d="
M55.693447,306.942139 
	C55.866817,307.342133 55.774380,307.831268 55.267483,308.139893 
	C55.044559,307.650024 55.236099,307.340637 55.693447,306.942139 
z"/>
<path fill="#FDEAE6" opacity="1.000000" stroke="none" 
	d="
M56.698261,305.939636 
	C56.866596,306.348450 56.768719,306.846100 56.263325,307.149689 
	C56.047890,306.646576 56.239971,306.337524 56.698261,305.939636 
z"/>
<path fill="#FDEAE6" opacity="1.000000" stroke="none" 
	d="
M57.685287,304.947266 
	C57.868416,305.334717 57.786213,305.810852 57.276920,306.126434 
	C57.039875,305.655884 57.229912,305.345917 57.685287,304.947266 
z"/>
<path fill="#FEEFEC" opacity="1.000000" stroke="none" 
	d="
M429.053497,304.691345 
	C428.659576,304.872406 428.173401,304.788971 427.860168,304.276611 
	C428.342499,304.040710 428.651855,304.233765 429.053497,304.691345 
z"/>
<path fill="#FDEAE6" opacity="1.000000" stroke="none" 
	d="
M58.690399,303.943665 
	C58.868706,304.355194 58.782673,304.855011 58.276024,305.154785 
	C58.045628,304.647186 58.235844,304.339569 58.690399,303.943665 
z"/>
<path fill="#FFFAF9" opacity="1.000000" stroke="none" 
	d="
M213.023636,302.365540 
	C213.397049,302.237610 213.842697,302.360535 214.129349,302.817078 
	C213.678848,302.972626 213.387360,302.794525 213.023636,302.365540 
z"/>
<path fill="#FEF2EF" opacity="1.000000" stroke="none" 
	d="
M126.931702,303.230988 
	C126.496849,303.261505 126.083305,302.923309 125.854095,302.219543 
	C126.343292,302.190094 126.648148,302.526184 126.931702,303.230988 
z"/>
</svg>